<?xml version="1.0" encoding="UTF-8" standalone="no"?>
<!-- Created with Inkscape (http://www.inkscape.org/) -->

<svg
   width="24.652979mm"
   height="12.820002mm"
   viewBox="0 0 24.652979 12.820002"
   version="1.1"
   id="svg1"
   inkscape:version="1.4 (e7c3feb1, 2024-10-09)"
   sodipodi:docname="biscaytik.svg"
   xmlns:inkscape="http://www.inkscape.org/namespaces/inkscape"
   xmlns:sodipodi="http://sodipodi.sourceforge.net/DTD/sodipodi-0.dtd"
   xmlns="http://www.w3.org/2000/svg"
   xmlns:svg="http://www.w3.org/2000/svg">
  <sodipodi:namedview
     id="namedview1"
     pagecolor="#ffffff"
     bordercolor="#000000"
     borderopacity="0.25"
     inkscape:showpageshadow="2"
     inkscape:pageopacity="0.0"
     inkscape:pagecheckerboard="0"
     inkscape:deskcolor="#d1d1d1"
     inkscape:document-units="mm"
     inkscape:zoom="0.80176768"
     inkscape:cx="46.771654"
     inkscape:cy="236.97638"
     inkscape:window-width="1200"
     inkscape:window-height="1027"
     inkscape:window-x="0"
     inkscape:window-y="25"
     inkscape:window-maximized="0"
     inkscape:current-layer="layer1" />
  <defs
     id="defs1">
    <clipPath
       clipPathUnits="userSpaceOnUse"
       id="clipPath1">
      <path
         d="m 325.18397,468.246 h 244.992 v 147.03494 h -244.992 z"
         id="path122"
         style="stroke-width:1" />
    </clipPath>
    <clipPath
       clipPathUnits="userSpaceOnUse"
       id="clipPath123">
      <path
         d="m 325.18397,468.246 h 244.992 v 147.03494 h -244.992 z"
         id="path155"
         style="stroke-width:1" />
    </clipPath>
    <clipPath
       clipPathUnits="userSpaceOnUse"
       id="clipPath122">
      <path
         d="m 325.18397,468.246 h 244.992 v 147.03494 h -244.992 z"
         id="path123"
         style="stroke-width:1" />
    </clipPath>
    <clipPath
       clipPathUnits="userSpaceOnUse"
       id="clipPath305">
      <path
         d="m 325.18397,468.246 h 244.992 v 147.03494 h -244.992 z"
         id="path308"
         style="stroke-width:1" />
    </clipPath>
    <clipPath
       clipPathUnits="userSpaceOnUse"
       id="clipPath318">
      <path
         d="m 325.18397,468.246 h 244.992 v 147.03494 h -244.992 z"
         id="path399"
         style="stroke-width:1" />
    </clipPath>
    <clipPath
       clipPathUnits="userSpaceOnUse"
       id="clipPath308">
      <path
         d="m 325.18397,468.246 h 244.992 v 147.03494 h -244.992 z"
         id="path311"
         style="stroke-width:1" />
    </clipPath>
    <clipPath
       clipPathUnits="userSpaceOnUse"
       id="clipPath311">
      <path
         d="m 325.18397,468.246 h 244.992 v 147.03494 h -244.992 z"
         id="path318"
         style="stroke-width:1" />
    </clipPath>
    <clipPath
       clipPathUnits="userSpaceOnUse"
       id="clipPath155">
      <path
         d="m 325.18397,468.246 h 244.992 v 147.03494 h -244.992 z"
         id="path158"
         style="stroke-width:1" />
    </clipPath>
    <clipPath
       clipPathUnits="userSpaceOnUse"
       id="clipPath158">
      <path
         d="m 325.18397,468.246 h 244.992 v 147.03494 h -244.992 z"
         id="path161"
         style="stroke-width:1" />
    </clipPath>
    <clipPath
       clipPathUnits="userSpaceOnUse"
       id="clipPath161">
      <path
         d="m 325.18397,468.246 h 244.992 v 147.03494 h -244.992 z"
         id="path176"
         style="stroke-width:1" />
    </clipPath>
    <clipPath
       clipPathUnits="userSpaceOnUse"
       id="clipPath176">
      <path
         d="m 325.18397,468.246 h 244.996 v 147.03494 h -244.996 z"
         id="path179"
         style="stroke-width:1" />
    </clipPath>
    <clipPath
       clipPathUnits="userSpaceOnUse"
       id="clipPath179">
      <path
         d="m 325.18397,468.246 h 244.996 v 147.03494 h -244.996 z"
         id="path182"
         style="stroke-width:1" />
    </clipPath>
    <clipPath
       clipPathUnits="userSpaceOnUse"
       id="clipPath185">
      <path
         d="m 325.18397,468.246 h 244.996 v 147.03494 h -244.996 z"
         id="path188"
         style="stroke-width:1" />
    </clipPath>
    <clipPath
       clipPathUnits="userSpaceOnUse"
       id="clipPath182">
      <path
         d="m 325.18397,468.246 h 244.996 v 147.03494 h -244.996 z"
         id="path185"
         style="stroke-width:1" />
    </clipPath>
    <clipPath
       clipPathUnits="userSpaceOnUse"
       id="clipPath399">
      <path
         d="m 325.18397,468.246 h 244.996 v 147.03494 h -244.996 z"
         id="path400"
         style="stroke-width:1" />
    </clipPath>
    <clipPath
       clipPathUnits="userSpaceOnUse"
       id="clipPath400">
      <path
         d="m 325.18397,468.246 h 244.996 v 147.03494 h -244.996 z"
         id="path401"
         style="stroke-width:1" />
    </clipPath>
    <clipPath
       clipPathUnits="userSpaceOnUse"
       id="clipPath401">
      <path
         d="m 325.18397,468.246 h 244.996 v 147.03494 h -244.996 z"
         id="path402"
         style="stroke-width:1" />
    </clipPath>
    <clipPath
       clipPathUnits="userSpaceOnUse"
       id="clipPath402">
      <path
         d="m 325.18397,468.246 h 244.996 v 147.03494 h -244.996 z"
         id="path403"
         style="stroke-width:1" />
    </clipPath>
    <clipPath
       clipPathUnits="userSpaceOnUse"
       id="clipPath403">
      <path
         d="m 325.18397,468.246 h 244.996 v 147.03494 h -244.996 z"
         id="path404"
         style="stroke-width:1" />
    </clipPath>
    <clipPath
       clipPathUnits="userSpaceOnUse"
       id="clipPath404">
      <path
         d="m 325.18397,468.246 h 244.996 v 147.03494 h -244.996 z"
         id="path405"
         style="stroke-width:1" />
    </clipPath>
    <clipPath
       clipPathUnits="userSpaceOnUse"
       id="clipPath406">
      <path
         d="m 325.18397,468.246 h 244.996 v 147.03494 h -244.996 z"
         id="path407"
         style="stroke-width:1" />
    </clipPath>
  </defs>
  <g
     inkscape:label="Capa 1"
     inkscape:groupmode="layer"
     id="layer1"
     transform="translate(-92.604172,-85.72499)">
    <g
       id="g1">
      <path
         d="m 364.77,497.199 c 0.015,-0.019 0.015,-0.054 -0.02,-0.07 -0.016,0 -0.016,0 -0.035,0 -7.035,10.523 -9.496,22.07 -7.403,34.652 0.7,4.129 1.938,8.395 3.754,12.785 0.036,0.071 0.02,0.09 -0.05,0.055 -2.043,-1.027 -4.137,-2.023 -6.25,-2.98 -5.239,-2.371 -9.899,-5.539 -13.024,-10.313 -0.644,-0.976 -1.937,-3.348 -0.922,-4.41 1.36,-1.445 2.793,1.289 3.91,0.453 0.278,-0.207 0.383,-0.504 0.278,-0.851 -0.262,-0.993 -0.977,-1.954 -1.5,-2.825 -2.567,-4.285 -4.469,-8.937 -4.957,-13.918 -0.125,-1.289 -0.141,-2.476 -0.071,-3.539 0.071,-0.972 0.368,-2.07 1.622,-1.968 0.89,0.07 1.554,0.382 2.097,1.097 0.363,0.488 0.785,0.942 1.239,1.379 0.574,0.539 1.675,1.098 2.128,0.102 0.141,-0.293 0.227,-0.68 0.246,-1.149 0.067,-1.183 0.122,-2.367 0.157,-3.535 0.035,-0.941 0.172,-2.039 0.402,-3.242 0.313,-1.602 0.887,-3.102 1.691,-4.496 0.559,-0.938 1.239,-1.864 2.286,-2.246 1.906,-0.68 2.793,1.097 3.718,2.3 0.368,0.469 1.293,1.34 1.957,1.063 0.297,-0.121 0.539,-0.313 0.75,-0.594 1.082,-1.461 1.903,-2.804 2.446,-4.039 0.695,-1.605 1.5,-3.086 2.722,-4.34 0.645,-0.66 1.973,-1.621 2.793,-0.886 0.364,0.328 0.332,1.007 0.504,1.48 0.489,1.219 1.66,0.715 2.461,0.207 0.961,-0.609 1.903,-1.219 2.828,-1.848 0.489,-0.328 1.032,-0.609 1.661,-0.851 1.988,-0.766 3.07,0.75 2.964,2.543 -0.015,0.402 -0.136,0.785 -0.363,1.148 -0.578,0.977 -1.277,1.867 -1.906,2.754 -0.574,0.821 -0.59,2.004 0.664,2.18 0.453,0.066 0.891,0.101 1.308,0.137 0.997,0.07 2.028,0.714 1.938,1.812 -0.121,1.707 -2.109,3.484 -3.383,4.496 -0.82,0.66 -1.609,1.289 -2.359,1.934 -0.926,0.785 -2.094,2.16 -1.344,3.398 1.012,1.672 2.848,1.043 4.434,0.887 1.363,-0.141 2.234,0.297 2.617,1.305 0.332,0.871 0.301,1.691 -0.121,2.457 -0.242,0.437 -0.559,0.89 -0.942,1.359 -0.961,1.152 -2.007,2.301 -3.14,3.469 -1.907,1.949 -3.668,3.797 -5.309,5.523 -0.609,0.645 -2.113,2.281 -1.535,3.203 0.594,0.942 1.621,0.856 2.547,0.539 0.98,-0.328 2.183,-0.8 3.18,-0.644 0.957,0.16 1.378,1.152 1.203,2.058 -0.106,0.61 -0.317,1.219 -0.594,1.848 -0.508,1.113 -1.012,2.227 -1.555,3.36 -2.828,5.906 -3.855,12.769 -1.551,19.042 0.329,0.887 0.696,1.692 1.133,2.387 0.192,0.297 0.156,0.332 -0.105,0.086 -1.239,-1.199 -2.426,-2.543 -3.594,-4.004 -0.594,-0.75 -1.102,-1.519 -1.539,-2.301 -4.59,-8.503 -7.121,-17.894 -6.578,-27.527 0.433,-7.508 2.738,-14.476 6.512,-20.922 z"
         style="fill:#c9141f;fill-opacity:1;fill-rule:nonzero;stroke:none"
         transform="matrix(0.11248454,0,0,0.11248454,54.53505,31.22978)"
         clip-path="url(#clipPath1)"
         id="path154" />
      <path
         d="m 469.66,533.035 c -0.019,-0.035 -0.019,-0.07 0.016,-0.105 4.523,-4.461 9.113,-8.973 13.758,-13.555 0.609,-0.609 0.679,-1.758 -0.493,-1.758 -1.882,-0.019 -4.082,-0.019 -6.578,0 -0.75,0 -1.379,0.262 -1.851,0.746 -3.282,3.364 -6.582,6.727 -9.934,10.141 -0.086,0.086 -0.121,0.07 -0.101,-0.051 1.046,-6.515 2.093,-13.031 3.156,-19.566 0.125,-0.782 0.351,-1.481 -0.363,-1.828 -0.231,-0.106 -0.614,-0.157 -1.137,-0.157 -1.5,0.016 -3.039,0.016 -4.61,0 -0.8,-0.019 -1.515,0.192 -1.691,1.063 -0.121,0.594 -0.227,1.254 -0.352,1.984 -2.144,13.414 -4.292,26.797 -6.441,40.125 -0.156,1.008 -0.066,1.828 1.188,1.844 1.711,0 3.441,0 5.203,0 0.871,0 1.379,-0.418 1.5,-1.27 0.734,-4.582 1.433,-9.128 2.132,-13.625 0.016,-0.105 0.051,-0.121 0.102,-0.015 2.359,4.582 4.715,9.164 7.09,13.777 0.383,0.75 0.992,1.117 1.848,1.133 2.128,0 4.101,0 5.902,0 0.926,0 1.324,-0.957 0.926,-1.723 -3.09,-5.715 -6.164,-11.429 -9.27,-17.16 z"
         style="fill:#161615;fill-opacity:1;fill-rule:nonzero;stroke:none"
         transform="matrix(0.11248454,0,0,0.11248454,54.53505,31.22978)"
         clip-path="url(#clipPath123)"
         id="path157" />
      <path
         d="m 402.543,528.121 c 5.234,-2.144 7.68,-7.473 7.086,-12.91 -0.734,-6.879 -8.188,-8.223 -13.844,-8.238 -4.59,-0.02 -8.988,-0.02 -13.211,0 -0.91,0 -1.433,0.504 -1.609,1.515 -2.25,14.059 -4.485,28.102 -6.735,42.16 -0.07,0.399 0.036,0.731 0.278,1.008 0.281,0.297 0.769,0.332 1.152,0.332 5.254,0.02 10.195,0.02 14.856,0 5.898,-0.015 12.097,-1.898 15.183,-7.176 1.715,-2.929 2.219,-6.535 1.801,-9.863 -0.367,-2.996 -2.043,-5.679 -4.977,-6.687 -0.085,-0.071 -0.085,-0.106 0.02,-0.141 z m -9.199,16.395 c -0.891,0.207 -1.746,0.312 -2.567,0.312 -2.425,0.02 -4.851,0.02 -7.246,0.02 h -0.015 c -0.036,0 -0.071,-0.055 -0.071,-0.09 l 2.059,-12.508 c 0,-0.051 0.035,-0.086 0.09,-0.086 2.511,0 4.972,0 7.383,0 1.363,0 2.582,0.191 3.664,0.559 1.746,0.589 2.601,1.914 2.656,3.742 0.121,4.164 -1.852,7.109 -5.953,8.051 z m 7.629,-24.532 c -0.735,3.766 -3.86,5.454 -7.524,5.489 -2.168,0.019 -4.433,0.035 -6.808,0.019 -0.071,0 -0.09,-0.035 -0.09,-0.09 l 1.816,-11.269 c 0.02,-0.071 0.055,-0.09 0.106,-0.106 2.41,0 4.8,0 7.191,0 0.805,0 1.641,0.106 2.481,0.313 1.726,0.418 2.843,1.445 2.964,3.277 0.055,0.836 0.02,1.621 -0.136,2.367 z"
         style="fill:#161615;fill-opacity:1;fill-rule:nonzero;stroke:none"
         transform="matrix(0.11248454,0,0,0.11248454,54.53505,31.22978)"
         clip-path="url(#clipPath122)"
         id="path160" />
      <path
         d="m 418.094,514.148 c 1.64,0.02 3.457,0.02 5.445,0 0.805,0 1.277,-0.468 1.399,-1.218 0.261,-1.586 0.507,-3.082 0.75,-4.532 0.14,-0.886 -0.208,-1.339 -1.063,-1.359 -0.996,-0.016 -2.813,-0.016 -5.449,-0.016 -0.906,0 -1.43,0.438 -1.571,1.325 -0.261,1.566 -0.503,2.996 -0.699,4.304 -0.172,0.993 0.231,1.481 1.188,1.496 z"
         style="fill:#161615;fill-opacity:1;fill-rule:nonzero;stroke:none"
         transform="matrix(0.11248454,0,0,0.11248454,54.53505,31.22978)"
         clip-path="url(#clipPath305)"
         id="path163" />
      <path
         d="m 527.559,507.039 c -1.747,-0.016 -3.559,-0.016 -5.461,-0.016 -0.891,0 -1.414,0.454 -1.555,1.36 -0.191,1.254 -0.418,2.578 -0.68,3.988 -0.16,0.871 -0.054,1.762 1.063,1.777 1.816,0.02 3.683,0.02 5.605,0 0.821,-0.015 1.254,-0.539 1.379,-1.304 0.207,-1.324 0.453,-2.719 0.715,-4.219 0.121,-0.836 0,-1.586 -1.066,-1.586 z"
         style="fill:#161615;fill-opacity:1;fill-rule:nonzero;stroke:none"
         transform="matrix(0.11248454,0,0,0.11248454,54.53505,31.22978)"
         clip-path="url(#clipPath318)"
         id="path166" />
      <path
         d="m 502.668,517.215 c -3.84,-0.399 -7.715,-0.051 -11.625,1.082 -0.543,0.156 -1.082,0.348 -1.641,0.59 -0.75,0.312 -1.242,0.961 -1.187,1.812 0.086,1.113 0.14,2.317 0.176,3.571 0.031,1.117 0.957,1.152 1.777,0.855 2.324,-0.855 4.644,-1.344 6.93,-1.48 2.968,-0.176 6.828,0.156 6.234,4.335 -0.121,0.872 -0.262,1.778 -0.437,2.754 -0.016,0.051 -0.051,0.106 -0.122,0.106 -3.16,0.051 -6.164,0.348 -9.007,0.906 -4.504,0.871 -9.129,2.996 -10.719,7.684 -0.574,1.707 -0.801,3.5 -0.68,5.382 0.332,4.719 3.629,7.352 8.117,7.543 4.118,0.176 7.454,-1.324 9.95,-4.425 0.07,-0.086 0.105,-0.071 0.086,0.035 -0.102,0.922 -0.172,1.812 -0.262,2.664 -0.07,0.855 0.332,1.273 1.238,1.289 1.469,0 2.934,0 4.402,0 0.836,0 1.325,-0.434 1.465,-1.289 1.117,-7.02 2.305,-14.356 3.528,-21.984 0.207,-1.309 0.261,-2.668 0.156,-3.938 -0.332,-4.895 -3.945,-7.019 -8.379,-7.492 z m -0.543,18.711 c -0.191,1.324 -0.434,2.719 -0.695,4.183 -0.192,1.043 -0.649,2.106 -1.344,3.203 -1.398,2.145 -3.633,3.223 -6.199,3.258 -2.024,0.02 -3.699,-0.922 -3.805,-3.117 -0.246,-4.879 3.336,-6.535 7.473,-7.18 1.55,-0.242 3.054,-0.398 4.484,-0.453 0.07,-0.015 0.106,0.035 0.086,0.106 z"
         style="fill:#161615;fill-opacity:1;fill-rule:nonzero;stroke:none"
         transform="matrix(0.11248454,0,0,0.11248454,54.53505,31.22978)"
         clip-path="url(#clipPath308)"
         id="path169" />
      <path
         d="m 554.457,518.977 c -1.953,-1.344 -4.484,-1.797 -6.824,-1.918 -3.821,-0.192 -7.766,0.347 -11.313,1.586 -0.906,0.312 -1.726,0.871 -1.656,1.949 0.086,1.258 0.156,2.511 0.191,3.73 0.036,0.957 0.961,1.043 1.676,0.785 3.004,-1.117 6.266,-1.746 9.41,-1.5 2.668,0.207 4.278,1.602 3.84,4.442 -0.14,0.855 -0.281,1.726 -0.418,2.613 -0.019,0.07 -0.054,0.121 -0.14,0.121 -3.371,0.09 -6.391,0.387 -9.078,0.926 -4.711,0.941 -9.27,3.117 -10.77,8.101 -0.645,2.106 -0.805,4.774 -0.227,6.864 0.997,3.59 4.086,5.433 7.664,5.629 4.208,0.207 7.575,-1.258 10.106,-4.426 0.07,-0.09 0.086,-0.07 0.086,0.035 -0.086,0.801 -0.172,1.672 -0.262,2.578 -0.086,0.922 0.317,1.375 1.207,1.375 1.465,0 2.965,0 4.504,0 0.715,0 1.254,-0.437 1.379,-1.148 1.168,-7.301 2.356,-14.602 3.508,-21.867 0.594,-3.657 0.418,-7.629 -2.883,-9.875 z m -5.879,16.898 c -0.211,1.43 -0.437,2.75 -0.648,3.973 -0.141,0.816 -0.418,1.636 -0.821,2.472 -1.379,2.805 -3.961,4.336 -7.156,4.215 -1.605,-0.051 -3.035,-0.851 -3.351,-2.492 -0.106,-0.539 -0.122,-1.148 -0.051,-1.809 0.312,-3.347 2.668,-4.929 5.812,-5.664 1.762,-0.418 3.805,-0.679 6.125,-0.785 0.071,0 0.09,0.02 0.09,0.09 z"
         style="fill:#161615;fill-opacity:1;fill-rule:nonzero;stroke:none"
         transform="matrix(0.11248454,0,0,0.11248454,54.53505,31.22978)"
         clip-path="url(#clipPath311)"
         id="path172" />
      <path
         d="m 422.336,517.617 c -1.535,0 -3.106,0 -4.711,0 -0.961,0 -1.504,0.453 -1.641,1.34 -1.675,10.488 -3.371,20.992 -5.046,31.535 -0.141,0.922 0.246,1.375 1.187,1.391 1.66,0.019 3.457,0.019 5.395,0 1.082,0 1.273,-0.973 1.394,-1.809 1.66,-10.453 3.336,-20.871 4.992,-31.293 0.055,-0.312 -0.015,-0.574 -0.226,-0.816 -0.278,-0.367 -0.907,-0.348 -1.344,-0.348 z"
         style="fill:#161615;fill-opacity:1;fill-rule:nonzero;stroke:none"
         transform="matrix(0.11248454,0,0,0.11248454,54.53505,31.22978)"
         clip-path="url(#clipPath155)"
         id="path175" />
      <path
         d="m 450.875,517.617 c -6.266,0 -12.813,0 -19.652,0 -0.75,0 -1.364,0.399 -1.504,1.133 -0.242,1.375 -0.489,2.82 -0.75,4.32 -0.137,0.871 0.191,1.481 1.187,1.481 3.86,0 7.77,0 11.75,0 0.016,0 0.016,0 0.016,0 0.016,0.015 0.016,0.035 0,0.051 -5.672,7.281 -11.188,14.355 -16.567,21.253 -0.367,0.473 -0.593,0.993 -0.679,1.606 -0.121,0.781 -0.262,1.777 -0.453,2.977 -0.141,0.82 0.121,1.445 1.082,1.445 6.929,0 13.843,0 20.773,-0.016 0.801,0 1.274,-0.418 1.414,-1.273 0.207,-1.254 0.434,-2.594 0.696,-4.004 0.156,-0.871 0.019,-1.57 -1.083,-1.57 -4.187,0 -8.308,0 -12.339,0 -0.071,0 -0.071,-0.016 -0.036,-0.071 5.36,-6.933 10.719,-13.883 16.094,-20.816 0.438,-0.559 0.84,-1.028 0.961,-1.727 0.192,-1.113 0.403,-2.316 0.61,-3.605 0.226,-1.047 -0.766,-1.184 -1.52,-1.184 z"
         style="fill:#161615;fill-opacity:1;fill-rule:nonzero;stroke:none"
         transform="matrix(0.11248454,0,0,0.11248454,54.53505,31.22978)"
         clip-path="url(#clipPath158)"
         id="path178" />
      <path
         d="m 524.992,517.633 c -1.5,0 -3,0 -4.504,0 -0.886,0 -1.41,0.453 -1.55,1.359 -1.641,10.227 -3.336,20.766 -5.063,31.602 -0.141,0.82 0.313,1.308 1.187,1.308 1.747,0 3.489,0 5.235,0 0.961,0 1.363,-0.558 1.519,-1.464 1.661,-10.418 3.336,-20.887 5.028,-31.411 0.211,-1.41 -0.715,-1.394 -1.852,-1.394 z"
         style="fill:#161615;fill-opacity:1;fill-rule:nonzero;stroke:none"
         transform="matrix(0.11248454,0,0,0.11248454,54.53505,31.22978)"
         clip-path="url(#clipPath161)"
         id="path181" />
      <path
         d="m 400,566.461 c 0.555,-0.797 0.414,-1.852 -0.316,-2.359 -0.727,-0.504 -1.77,-0.262 -2.325,0.535 -0.554,0.801 -0.41,1.855 0.317,2.359 0.73,0.504 1.769,0.266 2.324,-0.535 z"
         style="fill:#c9141f;fill-opacity:1;fill-rule:nonzero;stroke:none"
         transform="matrix(0.11248454,0,0,0.11248454,54.53505,31.22978)"
         clip-path="url(#clipPath176)"
         id="path184" />
      <path
         d="m 490.141,566.453 c 0.558,-0.797 0.418,-1.855 -0.309,-2.359 -0.727,-0.508 -1.77,-0.274 -2.324,0.523 -0.559,0.797 -0.422,1.856 0.308,2.363 0.727,0.504 1.766,0.27 2.325,-0.527 z"
         style="fill:#c9141f;fill-opacity:1;fill-rule:nonzero;stroke:none"
         transform="matrix(0.11248454,0,0,0.11248454,54.53505,31.22978)"
         clip-path="url(#clipPath179)"
         id="path187" />
      <path
         d="m 386.152,571.953 c -3.945,-0.453 -7.418,3.399 -9.218,6.449 -0.122,0.207 -0.157,0.192 -0.106,-0.035 l 3.145,-15 v -0.019 c 0,-0.036 -0.035,-0.071 -0.071,-0.071 h -1.66 c -0.066,0 -0.105,0.035 -0.105,0.09 l -5.844,27.942 c -0.035,0.211 0.031,0.296 0.242,0.281 0.524,-0.055 0.82,-0.09 0.875,-0.09 0.227,-0.016 0.383,-0.137 0.434,-0.328 l 0.578,-2.195 c 0.016,-0.09 0.051,-0.09 0.105,-0.02 1.465,2.875 4.922,3.469 7.731,2.215 4.312,-1.934 6.984,-7.145 7.644,-11.586 0.457,-2.961 0.09,-7.195 -3.75,-7.633 z m 1.953,7.422 c -0.296,2.145 -0.976,4.164 -2.043,6.063 -1.324,2.351 -3.472,4.617 -6.16,4.863 -2.254,0.207 -3.894,-0.645 -4.941,-2.543 -0.051,-0.106 -0.07,-0.211 -0.051,-0.317 0.332,-1.515 0.645,-3.031 0.942,-4.527 0.105,-0.559 0.281,-1.082 0.523,-1.57 1.344,-2.75 3.16,-5.469 5.727,-7.055 1.011,-0.629 2.023,-0.887 3.054,-0.801 3.02,0.227 3.246,3.657 2.949,5.887 z"
         style="fill:#c9141f;fill-opacity:1;fill-rule:nonzero;stroke:none"
         transform="matrix(0.11248454,0,0,0.11248454,54.53505,31.22978)"
         clip-path="url(#clipPath185)"
         id="path190" />
      <path
         d="m 498.008,580.891 c 0.086,-0.051 0.176,-0.121 0.262,-0.192 2.949,-2.437 6.285,-5.242 10.003,-8.429 0.067,-0.071 0.067,-0.09 -0.035,-0.09 -0.492,0.035 -0.98,0.035 -1.504,0.019 -0.402,-0.019 -0.714,0.207 -0.992,0.434 -3.004,2.547 -5.953,5.055 -8.867,7.527 -0.473,0.402 -0.996,0.313 -1.555,0.313 -0.07,0 -0.09,-0.035 -0.07,-0.086 l 3.594,-17.055 c 0,0 0,0 0,-0.02 0,-0.035 -0.016,-0.05 -0.051,-0.05 h -1.711 c -0.035,0 -0.051,0.015 -0.051,0.05 l -5.918,28.122 v 0.015 c 0,0.051 0.035,0.086 0.086,0.086 h 1.641 c 0.055,0 0.105,-0.035 0.105,-0.086 l 2.008,-9.562 c 0.016,-0.055 0.051,-0.09 0.106,-0.09 0.714,-0.035 1.414,-0.07 1.796,0.523 1.887,2.91 3.805,5.856 5.762,8.832 0.172,0.262 0.418,0.403 0.731,0.403 h 1.398 c 0.141,0 0.156,-0.055 0.086,-0.157 -2.129,-3.312 -4.258,-6.656 -6.422,-10.019 -0.09,-0.137 -0.226,-0.262 -0.367,-0.363 l -0.02,-0.02 c -0.07,-0.051 -0.05,-0.086 -0.015,-0.105 z"
         style="fill:#c9141f;fill-opacity:1;fill-rule:nonzero;stroke:none"
         transform="matrix(0.11248454,0,0,0.11248454,54.53505,31.22978)"
         clip-path="url(#clipPath182)"
         id="path193" />
      <path
         d="m 481.633,572.809 h -5.375 c -0.086,0 -0.106,-0.036 -0.106,-0.121 l 1.485,-7.024 c 0.051,-0.207 -0.035,-0.293 -0.246,-0.277 -0.243,0.015 -0.469,0.051 -0.715,0.07 -0.227,0.016 -0.367,0.137 -0.434,0.363 l -1.871,6.883 c -0.016,0.055 -0.051,0.086 -0.101,0.086 l -2.848,0.227 c -0.106,0 -0.176,0.07 -0.192,0.175 l -0.121,0.715 c 0,0.016 0,0.035 0,0.051 0,0.156 0.121,0.262 0.262,0.262 h 2.567 c 0.05,0 0.085,0.035 0.07,0.086 -0.891,4.183 -1.781,8.504 -2.707,12.965 -0.367,1.777 -0.317,3.972 1.887,4.476 1.847,0.434 3.769,-0.312 5.253,-1.601 0.086,-0.071 0.102,-0.176 0.067,-0.282 l -0.262,-0.695 c -0.016,-0.035 -0.016,-0.055 -0.031,-0.07 -0.09,-0.121 -0.266,-0.141 -0.387,-0.051 -0.926,0.711 -1.973,1.34 -3.14,1.234 -0.856,-0.086 -1.399,-0.488 -1.606,-1.234 -0.105,-0.367 -0.125,-0.906 -0.055,-1.289 0.368,-1.867 1.309,-6.344 2.828,-13.469 0.02,-0.07 0.055,-0.086 0.125,-0.086 h 5.411 c 0.07,0 0.105,-0.035 0.121,-0.105 l 0.226,-1.184 c 0,-0.07 -0.015,-0.105 -0.105,-0.105 z"
         style="fill:#c9141f;fill-opacity:1;fill-rule:nonzero;stroke:none"
         transform="matrix(0.11248454,0,0,0.11248454,54.53505,31.22978)"
         clip-path="url(#clipPath399)"
         id="path196" />
      <path
         d="m 425.777,571.953 c -3.179,0.418 -5.816,2.668 -7.472,5.402 -1.485,2.438 -2.235,5.051 -2.285,7.856 -0.055,3.469 1.691,6.309 5.375,6.551 2.179,0.14 4.066,-0.328 5.656,-1.391 0.89,-0.613 1.797,-1.359 2.722,-2.266 0.071,-0.07 0.071,-0.14 0.016,-0.226 l -0.312,-0.418 c -0.157,-0.211 -0.473,-0.262 -0.68,-0.106 -0.945,0.715 -1.817,1.567 -2.883,2.11 -1.117,0.574 -2.305,0.836 -3.559,0.816 -3.527,-0.051 -4.679,-2.961 -4.433,-6.043 0.137,-1.726 0.558,-3.363 1.273,-4.914 1.5,-3.277 4.625,-6.535 8.555,-5.785 1.082,0.211 2.023,0.856 2.738,1.707 0.02,0.02 0.02,0.035 0.035,0.035 0.176,0.176 0.473,0.157 0.645,-0.015 l 0.648,-0.7 c 0.016,-0.015 0.016,-0.05 0,-0.066 -1.363,-2.129 -3.597,-2.859 -6.039,-2.547 z"
         style="fill:#c9141f;fill-opacity:1;fill-rule:nonzero;stroke:none"
         transform="matrix(0.11248454,0,0,0.11248454,54.53505,31.22978)"
         clip-path="url(#clipPath400)"
         id="path199" />
      <path
         d="m 412.422,572.27 c -2.305,-0.68 -4.449,-0.418 -6.457,0.781 -1.887,1.133 -3.266,3.277 -3.039,5.508 0.14,1.339 1.168,2.316 2.375,2.839 0.926,0.399 1.902,0.782 2.933,1.133 1.43,0.504 2.793,1.516 2.598,3.223 -0.504,4.617 -6.543,6.391 -9.562,2.976 -0.594,-0.679 -1.137,0.282 -1.434,0.68 -0.035,0.055 -0.035,0.09 0,0.141 1.031,1.238 2.234,1.949 3.633,2.176 2.441,0.367 4.554,-0.157 6.371,-1.567 1.64,-1.273 2.738,-3.308 2.687,-5.418 -0.054,-2.004 -1.73,-3.031 -3.386,-3.66 -0.75,-0.277 -1.485,-0.555 -2.2,-0.836 -0.839,-0.328 -1.796,-0.906 -2.183,-1.742 -0.453,-0.992 -0.035,-2.262 0.594,-3.082 0.714,-0.906 1.625,-1.535 2.722,-1.848 2.063,-0.59 3.86,-0.207 5.43,1.149 0.281,0.246 0.543,0.226 0.785,-0.067 l 0.438,-0.543 c 0.085,-0.101 0.085,-0.207 -0.02,-0.312 -0.73,-0.785 -1.48,-1.289 -2.285,-1.531 z"
         style="fill:#c9141f;fill-opacity:1;fill-rule:nonzero;stroke:none"
         transform="matrix(0.11248454,0,0,0.11248454,54.53505,31.22978)"
         clip-path="url(#clipPath401)"
         id="path202" />
      <path
         d="m 449.586,572.844 c -2.043,-1.082 -4.695,-1.117 -6.824,-0.508 -1.434,0.422 -2.707,1.031 -3.86,1.867 -4.172,3.031 -6.843,7.961 -6.371,13.188 0.246,2.754 1.883,4.617 4.852,4.355 3.371,-0.297 6.234,-3.781 7.805,-6.57 0.121,-0.207 0.156,-0.207 0.105,0.035 l -1.102,5.664 c -0.07,0.348 0.071,0.559 0.438,0.609 0.207,0.036 0.453,0.051 0.785,0.071 0.191,0 0.313,-0.086 0.348,-0.262 l 3.859,-18.379 c 0,-0.019 0,-0.055 -0.035,-0.07 z m -1.973,0.992 c -0.472,2.211 -0.961,4.512 -1.449,6.918 -0.121,0.555 -0.281,1.078 -0.508,1.551 -1.414,3.011 -4.363,7.89 -8.062,7.925 -2.184,0.016 -3.039,-1.566 -3.196,-3.468 -0.332,-4.285 1.661,-8.324 4.907,-11.098 2.285,-1.934 5.254,-2.875 8.222,-1.984 0.067,0.035 0.086,0.086 0.086,0.156 z"
         style="fill:#c9141f;fill-opacity:1;fill-rule:nonzero;stroke:none"
         transform="matrix(0.11248454,0,0,0.11248454,54.53505,31.22978)"
         clip-path="url(#clipPath402)"
         id="path205" />
      <path
         d="m 398.266,572.215 -1.711,0.019 c -0.02,0 -0.051,0.016 -0.051,0.036 l -4.035,19.23 c 0,0 0,0 0,0.02 0,0.035 0.019,0.05 0.054,0.05 h 1.711 c 0.016,0 0.051,-0.015 0.051,-0.035 l 4.031,-19.23 v -0.02 c 0,-0.051 -0.015,-0.086 -0.05,-0.07 z"
         style="fill:#c9141f;fill-opacity:1;fill-rule:nonzero;stroke:none"
         transform="matrix(0.11248454,0,0,0.11248454,54.53505,31.22978)"
         clip-path="url(#clipPath403)"
         id="path208" />
      <path
         d="m 469.711,572.18 c -0.836,0.054 -1.309,0.07 -1.414,0.09 -0.156,0.015 -0.313,0.101 -0.383,0.242 l -9.809,16.203 c -0.019,0.015 -0.019,0.015 -0.019,0 -0.035,-0.277 0,-0.559 -0.051,-0.836 -0.945,-5.121 -1.867,-10.211 -2.812,-15.262 -0.035,-0.211 -0.227,-0.367 -0.453,-0.367 h -1.43 c -0.07,0 -0.09,0.035 -0.07,0.086 l 3.523,18.398 c 0.019,0.071 0,0.141 -0.035,0.192 l -4.57,7.265 c -0.106,0.176 -0.071,0.262 0.136,0.247 0.438,-0.036 0.891,-0.071 1.364,-0.106 0.175,-0.02 0.312,-0.105 0.402,-0.246 l 15.762,-25.68 c 0.07,-0.172 0.015,-0.242 -0.141,-0.226 z"
         style="fill:#c9141f;fill-opacity:1;fill-rule:nonzero;stroke:none"
         transform="matrix(0.11248454,0,0,0.11248454,54.53505,31.22978)"
         clip-path="url(#clipPath404)"
         id="path211" />
      <path
         d="m 488.406,572.215 h -1.711 c -0.035,0 -0.05,0.019 -0.07,0.055 l -4.031,19.214 c 0,0 0,0 0,0.016 0,0.035 0.035,0.07 0.07,0.07 h 1.711 c 0.035,0 0.051,-0.015 0.051,-0.05 l 4.035,-19.215 c 0,0 0,0 0,-0.02 0,-0.035 -0.02,-0.07 -0.055,-0.07 z"
         style="fill:#c9141f;fill-opacity:1;fill-rule:nonzero;stroke:none"
         transform="matrix(0.11248454,0,0,0.11248454,54.53505,31.22978)"
         clip-path="url(#clipPath406)"
         id="path214" />
    </g>
  </g>
</svg>
