<?xml version="1.0" encoding="UTF-8" standalone="no"?>
<!-- Created with Inkscape (http://www.inkscape.org/) -->

<svg
   width="24.576527mm"
   height="12.819908mm"
   viewBox="0 0 24.576527 12.819908"
   version="1.1"
   id="svg1"
   inkscape:version="1.4 (e7c3feb1, 2024-10-09)"
   sodipodi:docname="garbiker.svg"
   xmlns:inkscape="http://www.inkscape.org/namespaces/inkscape"
   xmlns:sodipodi="http://sodipodi.sourceforge.net/DTD/sodipodi-0.dtd"
   xmlns="http://www.w3.org/2000/svg"
   xmlns:svg="http://www.w3.org/2000/svg">
  <sodipodi:namedview
     id="namedview1"
     pagecolor="#ffffff"
     bordercolor="#000000"
     borderopacity="0.25"
     inkscape:showpageshadow="2"
     inkscape:pageopacity="0.0"
     inkscape:pagecheckerboard="0"
     inkscape:deskcolor="#d1d1d1"
     inkscape:document-units="mm"
     inkscape:zoom="0.80176768"
     inkscape:cx="46.771654"
     inkscape:cy="23.697638"
     inkscape:window-width="1200"
     inkscape:window-height="1027"
     inkscape:window-x="0"
     inkscape:window-y="25"
     inkscape:window-maximized="0"
     inkscape:current-layer="layer1" />
  <defs
     id="defs1">
    <clipPath
       clipPathUnits="userSpaceOnUse"
       id="clipPath405">
      <path
         d="M 667.32797,435.18806 H 943.84801 V 641.40302 H 667.32797 Z"
         id="path406"
         style="stroke-width:1" />
    </clipPath>
    <clipPath
       clipPathUnits="userSpaceOnUse"
       id="clipPath407">
      <path
         d="M 667.32797,435.18806 H 943.84801 V 641.40302 H 667.32797 Z"
         id="path408"
         style="stroke-width:1" />
    </clipPath>
    <clipPath
       clipPathUnits="userSpaceOnUse"
       id="clipPath408">
      <path
         d="M 667.32797,435.18806 H 943.84801 V 641.40302 H 667.32797 Z"
         id="path409"
         style="stroke-width:1" />
    </clipPath>
    <clipPath
       clipPathUnits="userSpaceOnUse"
       id="clipPath409">
      <path
         d="M 667.32797,435.18806 H 943.84801 V 641.40302 H 667.32797 Z"
         id="path410"
         style="stroke-width:1" />
    </clipPath>
    <clipPath
       clipPathUnits="userSpaceOnUse"
       id="clipPath410">
      <path
         d="M 667.32797,435.18806 H 943.84801 V 641.40302 H 667.32797 Z"
         id="path411"
         style="stroke-width:1" />
    </clipPath>
    <clipPath
       clipPathUnits="userSpaceOnUse"
       id="clipPath411">
      <path
         d="M 667.32797,435.18806 H 943.84801 V 641.40302 H 667.32797 Z"
         id="path412"
         style="stroke-width:1" />
    </clipPath>
    <clipPath
       clipPathUnits="userSpaceOnUse"
       id="clipPath412">
      <path
         d="M 667.32797,435.18806 H 943.84801 V 641.40302 H 667.32797 Z"
         id="path413"
         style="stroke-width:1" />
    </clipPath>
    <clipPath
       clipPathUnits="userSpaceOnUse"
       id="clipPath413">
      <path
         d="M 667.32797,435.18806 H 943.84801 V 641.40302 H 667.32797 Z"
         id="path414"
         style="stroke-width:1" />
    </clipPath>
    <clipPath
       clipPathUnits="userSpaceOnUse"
       id="clipPath414">
      <path
         d="M 657.422,415.0231 H 980.59404 V 656.03096 H 657.422 Z"
         id="path415"
         style="stroke-width:1" />
    </clipPath>
  </defs>
  <g
     inkscape:label="Capa 1"
     inkscape:groupmode="layer"
     id="layer1"
     transform="translate(-92.868749,-142.08126)">
    <g
       id="g1">
      <path
         d="m 859.566,535.809 c -7.851,0.449 -12.171,1.921 -12.078,7.48 0.035,1.984 1.274,3.32 3.766,3.32 4.473,0 7.101,-3.191 7.738,-7.156 z m 5.243,14.707 c -0.176,0.957 -0.551,1.402 -1.512,1.402 h -4.285 c -0.953,0 -1.344,-0.445 -1.293,-1.211 l 0.265,-2.941 c -1.625,2.172 -4.582,4.601 -9.379,4.601 -5.429,0 -8.683,-3.195 -8.765,-8.055 -0.199,-11.378 9.93,-13.105 20.476,-13.488 l 0.344,-2.109 c 0.645,-3.516 -0.793,-5.113 -5.012,-5.113 -3.32,0 -6.121,0.832 -8.281,1.597 -0.824,0.258 -1.531,-0.062 -1.484,-0.957 l -0.192,-3.707 c -0.015,-0.769 0.489,-1.344 1.25,-1.664 2.539,-1.023 6.426,-1.789 10.192,-1.789 7.672,0 11.297,2.875 11.398,8.5 0.02,0.895 -0.031,1.918 -0.207,2.941 z"
         style="fill:#000000;fill-opacity:1;fill-rule:nonzero;stroke:none"
         transform="matrix(0.11248454,0,0,0.11248454,14.54081,87.58614)"
         clip-path="url(#clipPath405)"
         id="path217" />
      <path
         d="m 885.234,512.668 c -0.175,1.023 -0.55,1.473 -1.507,1.473 h -5.305 c -0.961,0 -1.348,-0.45 -1.238,-1.473 l 0.687,-4.219 c 0.176,-0.957 0.617,-1.406 1.578,-1.406 h 5.239 c 1.023,0 1.414,0.449 1.238,1.406 z m -6.117,37.848 c -0.172,0.957 -0.551,1.402 -1.508,1.402 h -5.113 c -0.957,0 -1.414,-0.445 -1.242,-1.402 l 5.012,-31.454 c 0.172,-0.957 0.613,-1.406 1.574,-1.406 h 5.113 c 0.957,0 1.348,0.449 1.176,1.406 z"
         style="fill:#000000;fill-opacity:1;fill-rule:nonzero;stroke:none"
         transform="matrix(0.11248454,0,0,0.11248454,14.54081,87.58614)"
         clip-path="url(#clipPath407)"
         id="path220" />
      <path
         d="m 905.867,535.773 c -7.851,0.45 -12.172,1.922 -12.078,7.485 0.035,1.98 1.27,3.32 3.77,3.32 4.464,0 7.097,-3.191 7.738,-7.16 z m 5.242,14.704 c -0.175,0.961 -0.554,1.406 -1.515,1.406 h -4.278 c -0.957,0 -1.347,-0.445 -1.296,-1.215 l 0.265,-2.938 c -1.625,2.172 -4.586,4.602 -9.375,4.602 -5.433,0 -8.687,-3.191 -8.769,-8.055 -0.2,-11.379 9.929,-13.101 20.476,-13.488 l 0.34,-2.109 c 0.648,-3.512 -0.789,-5.114 -5.008,-5.114 -3.32,0 -6.121,0.836 -8.281,1.602 -0.828,0.254 -1.535,-0.066 -1.488,-0.961 l -0.192,-3.707 c -0.011,-0.77 0.489,-1.344 1.25,-1.664 2.539,-1.02 6.426,-1.789 10.196,-1.789 7.668,0 11.293,2.875 11.394,8.5 0.02,0.894 -0.031,1.922 -0.207,2.941 z"
         style="fill:#000000;fill-opacity:1;fill-rule:nonzero;stroke:none"
         transform="matrix(0.11248454,0,0,0.11248454,14.54081,87.58614)"
         clip-path="url(#clipPath408)"
         id="path223" />
      <path
         d="m 750.754,525.516 c 4.793,0 8.203,-2.301 8.113,-7.543 -0.051,-2.875 -1.988,-3.965 -6.269,-3.965 h -6.453 l -1.844,11.508 z m -2.793,19.371 c 5.301,0 9.16,-2.43 9.059,-8.25 -0.055,-3.129 -2.059,-4.473 -6.852,-4.473 h -6.902 l -2.078,12.723 z m -14.512,7.093 c -1.09,0 -1.543,-0.449 -1.367,-1.535 l 6.68,-42 c 0.172,-1.023 0.613,-1.465 1.699,-1.465 h 12.973 c 8.628,0 13.855,2.938 13.968,9.332 0.086,4.922 -2.129,9.844 -7.332,11.887 2.953,0.899 5.18,3.778 5.258,8.379 0.176,10.098 -6.824,15.402 -17.371,15.402 z"
         style="fill:#000000;fill-opacity:1;fill-rule:nonzero;stroke:none"
         transform="matrix(0.11248454,0,0,0.11248454,14.54081,87.58614)"
         clip-path="url(#clipPath409)"
         id="path226" />
      <path
         d="m 782.609,512.668 c -0.175,1.023 -0.547,1.473 -1.507,1.473 h -5.301 c -0.961,0 -1.352,-0.45 -1.242,-1.473 l 0.691,-4.219 c 0.176,-0.957 0.617,-1.406 1.574,-1.406 h 5.238 c 1.028,0 1.415,0.449 1.239,1.406 z m -6.113,37.848 c -0.172,0.957 -0.551,1.402 -1.508,1.402 h -5.113 c -0.961,0 -1.414,-0.445 -1.238,-1.402 l 5.008,-31.454 c 0.175,-0.957 0.613,-1.406 1.574,-1.406 h 5.113 c 0.953,0 1.348,0.449 1.176,1.406 z"
         style="fill:#000000;fill-opacity:1;fill-rule:nonzero;stroke:none"
         transform="matrix(0.11248454,0,0,0.11248454,14.54081,87.58614)"
         clip-path="url(#clipPath410)"
         id="path229" />
      <path
         d="m 809.422,522.133 c -0.047,0.769 -0.484,1.406 -0.922,1.918 l -16.184,21.031 h 12.266 c 0.965,0 1.414,0.379 1.238,1.34 l -0.695,4.094 c -0.172,0.957 -0.551,1.402 -1.508,1.402 h -20.449 c -1.023,0 -1.414,-0.445 -1.238,-1.402 l 0.457,-3.071 c 0.117,-0.703 0.488,-1.34 0.863,-1.789 l 16.375,-21.097 h -11.758 c -0.957,0 -1.351,-0.446 -1.238,-1.407 l 0.695,-4.09 c 0.11,-0.957 0.614,-1.406 1.571,-1.406 h 19.808 c 1.027,0 1.418,0.449 1.242,1.406 z"
         style="fill:#000000;fill-opacity:1;fill-rule:nonzero;stroke:none"
         transform="matrix(0.11248454,0,0,0.11248454,14.54081,87.58614)"
         clip-path="url(#clipPath411)"
         id="path232" />
      <path
         d="m 829.691,551.918 c -1.086,0 -1.605,-0.512 -1.941,-1.148 l -7.145,-13.938 -2.125,13.68 c -0.175,0.957 -0.55,1.406 -1.574,1.406 h -5.047 c -0.957,0 -1.414,-0.449 -1.304,-1.406 l 6.742,-42.254 c 0.172,-0.957 0.617,-1.34 1.574,-1.34 h 5.047 c 0.961,0 1.477,0.383 1.301,1.34 l -3.285,20.457 9.855,-10.102 c 0.504,-0.574 1.07,-0.957 2.156,-0.957 h 6.391 c 1.148,0 1.297,1.02 0.414,1.856 l -13.633,13.484 9.246,17.199 c 0.403,0.828 0.032,1.723 -0.988,1.723 z"
         style="fill:#000000;fill-opacity:1;fill-rule:nonzero;stroke:none"
         transform="matrix(0.11248454,0,0,0.11248454,14.54081,87.58614)"
         clip-path="url(#clipPath412)"
         id="path235" />
      <path
         d="m 728.074,516.891 c 2.254,-2.274 5.012,-5.215 5.867,-6.426 0.657,-0.813 1.02,-1.762 0.766,-2.637 -0.062,-0.789 -0.477,-1.355 -1.129,-1.676 -0.75,-0.382 -1.676,-0.203 -2.691,-0.082 -0.918,0.16 -1.793,0.211 -2.348,-0.082 -1.312,-0.676 -1.465,-1.91 -0.98,-2.797 0.597,-1.07 1.796,-1.968 3.039,-2.968 1.437,-1.153 2.859,-2.325 3.636,-3.821 0.879,-1.707 -0.011,-2.406 -0.625,-2.734 -0.445,-0.215 -1.004,-0.258 -1.55,-0.277 -0.411,-0.094 -0.871,-0.082 -1.137,-0.219 -0.715,-0.363 -0.797,-1.059 -0.324,-1.938 0.168,-0.296 0.511,-0.746 0.933,-1.3 0.449,-0.641 0.91,-1.293 1.215,-1.895 0.418,-0.797 0.328,-2.734 -0.949,-3.402 -1.293,-0.657 -3.25,0.73 -4.895,1.883 -1.406,0.906 -2.543,1.683 -3.234,1.316 -0.606,-0.324 -0.645,-0.836 -0.738,-1.258 -0.102,-0.426 -0.102,-0.797 -0.532,-1.023 -1.035,-0.535 -2.679,0.711 -3.988,2.832 -0.801,1.293 -1.14,2.211 -1.57,3.09 -0.313,0.695 -0.778,1.421 -1.297,2.23 -1.145,1.809 -1.676,2.242 -2.563,1.715 -0.886,-0.527 -1.347,-1.309 -1.792,-1.938 -0.399,-0.48 -0.809,-0.964 -1.157,-1.175 -0.965,-0.571 -2.406,-0.243 -3.476,1.238 -2.551,3.543 -2.703,7.644 -2.746,10.484 -0.086,1.418 -0.086,2.551 -0.45,3.031 -0.363,0.493 -1.047,0.477 -1.843,-0.124 -0.262,-0.204 -0.649,-0.618 -1.032,-1.032 -0.3,-0.355 -0.613,-0.847 -0.976,-1.109 -0.442,-0.344 -1.973,-0.906 -2.625,-0.102 -1.024,1.231 -0.387,6.571 0.25,9.032 1.176,4.543 3.121,7.992 4.363,10.14 1.106,1.781 1.723,2.801 1.316,3.371 -0.441,0.586 -1.128,0.293 -1.761,-0.082 -0.824,-0.547 -1.703,-1.008 -2.422,-0.058 -1.34,1.695 2.414,7.16 6.855,10.429 2.118,1.551 4.481,2.918 6.84,4.016 2.364,1.09 4.598,2.105 6.625,3.176 -12.461,-30.125 4.942,-48.531 4.395,-48.914 0.625,0.133 -16.34,20.59 -0.524,50.054 1.528,2.629 4.442,5.504 5.176,6.25 0.008,-0.015 0.016,-0.023 0.02,-0.035 -0.95,-1.465 -5.36,-9.832 0.375,-21.84 1.183,-2.57 2.464,-4.851 2,-6.066 -0.579,-1.508 -2.059,-1.098 -3.598,-0.606 -0.984,0.387 -2.012,0.618 -2.617,0.305 -0.406,-0.203 -0.684,-0.613 -0.766,-0.914 -0.098,-0.941 0.906,-2.047 1.598,-2.828 0.387,-0.437 1.597,-1.703 3.066,-3.234"
         style="fill:#c9141f;fill-opacity:1;fill-rule:nonzero;stroke:none"
         transform="matrix(0.11248454,0,0,0.11248454,14.54081,87.58614)"
         clip-path="url(#clipPath413)"
         id="path238" />
      <path
         d="m 842.387,591.309 2.008,-9.77 c 1.011,-2.559 2.121,-4.512 3.339,-5.867 1.219,-1.36 2.512,-2.035 3.883,-2.035 0.52,0 1.059,0.109 1.633,0.324 l 0.477,-1.715 c -0.532,-0.215 -1.067,-0.328 -1.59,-0.328 -1.27,0 -2.516,0.566 -3.742,1.711 -1.223,1.137 -2.364,2.75 -3.418,4.848 l 1.058,-5.707 c 0.039,-0.461 -0.168,-0.692 -0.613,-0.692 h -0.832 l -3.996,19.238 z m -6.66,-17.84 c 0.437,0.176 0.793,0.386 1.054,0.652 0.258,0.254 0.438,0.539 0.524,0.852 0.101,0.312 0.133,0.605 0.113,0.875 -0.035,0.379 -0.117,0.734 -0.238,1.078 -0.125,0.355 -0.348,0.683 -0.657,1.012 -0.312,0.332 -0.738,0.648 -1.269,0.953 -0.535,0.308 -1.223,0.597 -2.07,0.859 -0.844,0.266 -1.872,0.512 -3.071,0.758 -1.203,0.234 -2.629,0.441 -4.273,0.621 0.293,-1.039 0.699,-2.039 1.215,-2.996 0.515,-0.957 1.121,-1.797 1.82,-2.524 0.695,-0.73 1.48,-1.308 2.348,-1.746 0.871,-0.433 1.812,-0.652 2.839,-0.652 0.672,0 1.223,0.086 1.665,0.258 m 3.16,1.039 c -0.141,-0.453 -0.399,-0.875 -0.766,-1.27 -0.371,-0.39 -0.867,-0.718 -1.496,-0.984 -0.625,-0.266 -1.402,-0.395 -2.348,-0.395 -1.011,0 -1.972,0.168 -2.875,0.504 -0.906,0.332 -1.738,0.789 -2.511,1.367 -0.77,0.579 -1.469,1.258 -2.094,2.043 -0.629,0.782 -1.172,1.625 -1.633,2.524 -0.457,0.902 -0.824,1.836 -1.098,2.812 -0.281,0.981 -0.464,1.95 -0.546,2.914 -0.102,1.153 -0.043,2.196 0.168,3.129 0.214,0.934 0.578,1.723 1.082,2.371 0.511,0.649 1.156,1.153 1.96,1.504 0.797,0.36 1.723,0.528 2.793,0.528 0.75,0 1.454,-0.075 2.122,-0.219 0.664,-0.148 1.316,-0.375 1.957,-0.684 0.632,-0.308 1.269,-0.703 1.91,-1.187 0.64,-0.477 1.304,-1.055 1.992,-1.723 l -0.379,-0.504 c -0.109,-0.121 -0.234,-0.191 -0.391,-0.191 -0.148,0 -0.328,0.074 -0.523,0.223 -0.199,0.144 -0.438,0.339 -0.715,0.566 -0.277,0.23 -0.594,0.473 -0.941,0.73 -0.348,0.262 -0.75,0.508 -1.2,0.735 -0.449,0.23 -0.957,0.426 -1.511,0.57 -0.563,0.149 -1.184,0.223 -1.864,0.223 -1.75,0 -3.007,-0.539 -3.785,-1.617 -0.769,-1.079 -1.074,-2.582 -0.906,-4.497 0.023,-0.257 0.051,-0.515 0.086,-0.777 0.039,-0.269 0.078,-0.531 0.129,-0.805 1.808,-0.195 3.398,-0.41 4.754,-0.664 1.363,-0.25 2.531,-0.531 3.527,-0.847 0.992,-0.309 1.809,-0.66 2.465,-1.043 0.645,-0.375 1.168,-0.778 1.566,-1.203 0.395,-0.426 0.688,-0.875 0.868,-1.348 0.187,-0.477 0.293,-0.981 0.347,-1.5 0.047,-0.395 -0.008,-0.828 -0.144,-1.285 m -25.805,-11.246 -5.887,28.047 h 1.793 l 2.024,-9.68 h 0.691 c 0.348,0 0.602,0.043 0.762,0.125 0.16,0.082 0.316,0.242 0.476,0.473 l 5.606,8.64 c 0.101,0.164 0.203,0.278 0.316,0.348 0.11,0.062 0.254,0.094 0.434,0.094 h 1.543 l -6.168,-9.68 c -0.102,-0.168 -0.203,-0.32 -0.305,-0.461 -0.105,-0.137 -0.242,-0.266 -0.41,-0.363 0.148,-0.078 0.285,-0.172 0.418,-0.282 0.129,-0.109 0.273,-0.226 0.43,-0.359 l 9.468,-8.039 h -1.582 c -0.218,0 -0.402,0.047 -0.55,0.137 -0.149,0.093 -0.309,0.203 -0.473,0.347 l -8.574,7.305 c -0.207,0.18 -0.387,0.301 -0.532,0.356 -0.144,0.058 -0.339,0.089 -0.566,0.089 h -0.715 l 3.598,-17.097 z m -6.543,1.593 c -0.07,-0.214 -0.176,-0.398 -0.316,-0.55 -0.141,-0.157 -0.305,-0.278 -0.496,-0.364 -0.192,-0.089 -0.391,-0.136 -0.594,-0.136 -0.219,0 -0.43,0.047 -0.629,0.136 -0.199,0.09 -0.383,0.211 -0.543,0.371 -0.164,0.161 -0.297,0.348 -0.406,0.551 -0.11,0.203 -0.172,0.426 -0.192,0.657 -0.023,0.226 0.004,0.445 0.078,0.648 0.071,0.195 0.176,0.375 0.309,0.523 0.133,0.157 0.293,0.282 0.48,0.368 0.184,0.089 0.383,0.132 0.602,0.132 0.207,0 0.414,-0.043 0.621,-0.132 0.203,-0.09 0.395,-0.211 0.559,-0.368 0.168,-0.148 0.308,-0.328 0.414,-0.523 0.105,-0.199 0.172,-0.422 0.191,-0.648 0.02,-0.231 -0.004,-0.454 -0.078,-0.665 m -3.695,7.274 -4.008,19.18 h 1.789 l 4.012,-19.18 z m -8.903,2.633 c 0.571,0.961 0.782,2.297 0.633,4.019 -0.074,0.84 -0.23,1.696 -0.469,2.574 -0.238,0.883 -0.543,1.743 -0.917,2.579 -0.376,0.832 -0.817,1.632 -1.325,2.375 -0.511,0.757 -1.074,1.41 -1.695,1.976 -0.621,0.567 -1.297,1.012 -2.023,1.34 -0.731,0.328 -1.5,0.492 -2.309,0.492 -0.449,0 -0.887,-0.043 -1.309,-0.144 -0.422,-0.098 -0.824,-0.254 -1.211,-0.469 -0.386,-0.219 -0.742,-0.504 -1.062,-0.859 -0.32,-0.356 -0.598,-0.782 -0.824,-1.282 l 1.156,-5.472 c 0.574,-1.286 1.207,-2.457 1.898,-3.508 0.688,-1.055 1.407,-1.953 2.161,-2.699 0.753,-0.746 1.515,-1.321 2.289,-1.735 0.773,-0.414 1.527,-0.613 2.261,-0.613 1.262,-0.008 2.172,0.469 2.746,1.426 m -14.187,16.547 c 0.234,0 0.398,-0.051 0.496,-0.145 0.098,-0.098 0.172,-0.25 0.23,-0.473 l 0.547,-2.082 c 0.457,0.981 1.114,1.715 1.969,2.203 0.859,0.497 1.832,0.747 2.926,0.747 0.922,0 1.816,-0.184 2.672,-0.551 0.863,-0.36 1.668,-0.86 2.414,-1.488 0.75,-0.633 1.437,-1.372 2.054,-2.219 0.622,-0.844 1.165,-1.75 1.629,-2.711 0.457,-0.953 0.836,-1.945 1.133,-2.961 0.293,-1.024 0.485,-2.031 0.571,-3.02 0.089,-1.031 0.062,-1.957 -0.083,-2.793 -0.144,-0.839 -0.402,-1.55 -0.777,-2.128 -0.371,-0.59 -0.859,-1.04 -1.461,-1.364 -0.605,-0.32 -1.32,-0.484 -2.156,-0.484 -0.77,0 -1.547,0.164 -2.324,0.496 -0.782,0.328 -1.535,0.785 -2.27,1.379 -0.734,0.594 -1.441,1.301 -2.133,2.129 -0.691,0.832 -1.332,1.75 -1.918,2.765 l 3.211,-15.343 h -1.796 l -5.844,28.046 z m -12.219,0 2.012,-9.77 c 1.008,-2.559 2.125,-4.512 3.336,-5.867 1.219,-1.36 2.515,-2.035 3.89,-2.035 0.516,0 1.055,0.109 1.629,0.324 l 0.477,-1.715 c -0.531,-0.215 -1.059,-0.328 -1.59,-0.328 -1.269,0 -2.519,0.566 -3.742,1.711 -1.223,1.137 -2.363,2.75 -3.422,4.848 l 1.059,-5.707 c 0.043,-0.461 -0.164,-0.692 -0.614,-0.692 h -0.828 l -3.996,19.238 z m -18.387,-2.707 c -0.5,-0.957 -0.675,-2.297 -0.523,-4.02 0.086,-0.98 0.285,-1.937 0.605,-2.871 0.321,-0.941 0.735,-1.832 1.247,-2.672 0.507,-0.84 1.093,-1.617 1.753,-2.32 0.657,-0.711 1.368,-1.317 2.125,-1.836 0.758,-0.516 1.555,-0.914 2.391,-1.203 0.836,-0.289 1.684,-0.438 2.543,-0.438 0.887,0 1.699,0.129 2.434,0.387 l -1.649,7.805 c -0.558,1.285 -1.172,2.457 -1.836,3.523 -0.664,1.055 -1.351,1.961 -2.062,2.715 -0.711,0.75 -1.438,1.332 -2.184,1.742 -0.754,0.41 -1.488,0.617 -2.222,0.617 -1.247,0.004 -2.122,-0.472 -2.622,-1.429 m 14.536,-15.817 c -0.625,-0.336 -1.266,-0.566 -1.922,-0.703 -0.657,-0.133 -1.371,-0.199 -2.141,-0.199 -1.055,0 -2.09,0.168 -3.105,0.5 -1.02,0.34 -1.989,0.797 -2.911,1.39 -0.917,0.594 -1.773,1.293 -2.562,2.102 -0.789,0.813 -1.484,1.699 -2.094,2.66 -0.601,0.965 -1.094,1.985 -1.472,3.059 -0.375,1.074 -0.614,2.172 -0.711,3.285 -0.09,1.027 -0.071,1.953 0.066,2.773 0.129,0.825 0.375,1.528 0.73,2.11 0.356,0.574 0.821,1.023 1.395,1.336 0.578,0.316 1.27,0.472 2.082,0.472 0.781,0 1.555,-0.168 2.313,-0.504 0.761,-0.336 1.503,-0.808 2.218,-1.402 0.711,-0.605 1.399,-1.332 2.059,-2.172 0.656,-0.84 1.273,-1.777 1.851,-2.804 l -1.16,6.031 c -0.015,0.168 0.02,0.308 0.106,0.426 0.086,0.117 0.25,0.171 0.496,0.171 h 0.887 z m -29.832,9.274 c -0.633,-0.707 -0.887,-1.743 -0.77,-3.11 0.066,-0.73 0.242,-1.445 0.535,-2.144 0.293,-0.7 0.684,-1.317 1.176,-1.864 0.492,-0.535 1.07,-0.972 1.742,-1.3 0.672,-0.332 1.418,-0.493 2.238,-0.493 1.196,0 2.118,0.34 2.762,1.008 0.649,0.68 0.914,1.684 0.801,3.016 -0.066,0.723 -0.242,1.437 -0.539,2.152 -0.293,0.715 -0.688,1.348 -1.184,1.91 -0.504,0.559 -1.09,1.008 -1.769,1.36 -0.68,0.344 -1.43,0.515 -2.254,0.515 -1.192,0.008 -2.106,-0.347 -2.738,-1.05 m 6.078,12.046 c -0.371,0.575 -0.871,1.086 -1.496,1.54 -0.625,0.453 -1.36,0.816 -2.204,1.082 -0.843,0.265 -1.769,0.402 -2.769,0.402 -0.797,0 -1.516,-0.078 -2.156,-0.231 -0.645,-0.152 -1.184,-0.371 -1.621,-0.664 -0.438,-0.289 -0.762,-0.648 -0.973,-1.082 -0.215,-0.429 -0.297,-0.918 -0.246,-1.472 0.051,-0.59 0.258,-1.157 0.621,-1.7 0.359,-0.539 0.867,-1.007 1.527,-1.414 0.66,-0.406 1.469,-0.722 2.426,-0.968 0.961,-0.235 2.074,-0.356 3.344,-0.356 0.527,0 1.074,0.02 1.633,0.059 0.562,0.035 1.156,0.109 1.773,0.211 l -0.012,-0.059 c 0.262,0.367 0.477,0.781 0.645,1.235 0.164,0.449 0.219,0.992 0.164,1.624 -0.066,0.622 -0.285,1.215 -0.656,1.793 m 4.015,-18.585 c -0.086,-0.485 -0.226,-0.93 -0.425,-1.325 l 3.144,-0.254 c 0.184,-0.023 0.32,-0.086 0.41,-0.183 0.094,-0.094 0.153,-0.211 0.176,-0.34 l 0.133,-0.613 h -5.012 c -0.422,-0.325 -0.914,-0.563 -1.476,-0.727 -0.567,-0.16 -1.176,-0.238 -1.829,-0.238 -1.121,0 -2.132,0.199 -3.043,0.609 -0.906,0.403 -1.691,0.934 -2.347,1.606 -0.653,0.668 -1.18,1.429 -1.567,2.281 -0.39,0.855 -0.625,1.726 -0.699,2.609 -0.078,0.875 -0.019,1.645 0.184,2.309 0.199,0.66 0.504,1.223 0.922,1.672 0.418,0.461 0.929,0.804 1.535,1.035 0.609,0.23 1.281,0.351 2.011,0.351 0.7,0 1.348,-0.101 1.946,-0.289 0.601,-0.195 1.18,-0.472 1.738,-0.832 -0.496,0.657 -0.836,1.215 -1.031,1.676 -0.195,0.465 -0.313,0.926 -0.356,1.379 -0.035,0.414 0.008,0.789 0.125,1.121 0.121,0.34 0.278,0.656 0.469,0.949 -0.445,-0.058 -0.887,-0.113 -1.316,-0.14 -0.438,-0.035 -0.871,-0.047 -1.309,-0.047 -1.262,0 -2.449,0.125 -3.57,0.387 -1.121,0.25 -2.117,0.625 -2.988,1.113 -0.872,0.484 -1.579,1.086 -2.125,1.797 -0.543,0.715 -0.856,1.527 -0.934,2.453 -0.066,0.715 0.047,1.355 0.332,1.922 0.281,0.566 0.715,1.047 1.289,1.437 0.578,0.391 1.277,0.688 2.102,0.895 0.82,0.203 1.742,0.305 2.754,0.305 1.285,0 2.468,-0.172 3.546,-0.52 1.075,-0.348 2.016,-0.813 2.805,-1.387 0.801,-0.578 1.434,-1.242 1.914,-2 0.477,-0.75 0.75,-1.531 0.82,-2.343 0.047,-0.5 0.008,-0.958 -0.109,-1.368 -0.121,-0.41 -0.277,-0.789 -0.473,-1.14 -0.195,-0.348 -0.41,-0.676 -0.652,-0.992 -0.242,-0.313 -0.465,-0.629 -0.66,-0.934 -0.199,-0.305 -0.359,-0.625 -0.488,-0.953 -0.121,-0.328 -0.172,-0.68 -0.137,-1.074 0.043,-0.461 0.164,-0.899 0.367,-1.313 0.199,-0.406 0.445,-0.812 0.742,-1.215 0.293,-0.398 0.606,-0.808 0.946,-1.222 0.336,-0.422 0.656,-0.868 0.953,-1.352 0.3,-0.477 0.562,-1.012 0.789,-1.586 0.219,-0.582 0.371,-1.227 0.445,-1.934 0.051,-0.562 0.031,-1.093 -0.051,-1.585"
         style="fill:#c9141f;fill-opacity:1;fill-rule:nonzero;stroke:none"
         transform="matrix(0.11248454,0,0,0.11248454,14.54081,87.58614)"
         clip-path="url(#clipPath414)"
         id="path241" />
    </g>
  </g>
</svg>
