<?xml version="1.0" encoding="UTF-8" standalone="no"?>
<!-- Created with Inkscape (http://www.inkscape.org/) -->

<svg
   width="474.06296mm"
   height="150.82327mm"
   viewBox="0 0 474.06295 150.82327"
   version="1.1"
   id="svg1"
   inkscape:version="1.4 (e7c3feb1, 2024-10-09)"
   sodipodi:docname="global_genai_big.svg"
   xmlns:inkscape="http://www.inkscape.org/namespaces/inkscape"
   xmlns:sodipodi="http://sodipodi.sourceforge.net/DTD/sodipodi-0.dtd"
   xmlns="http://www.w3.org/2000/svg"
   xmlns:svg="http://www.w3.org/2000/svg">
  <sodipodi:namedview
     id="namedview1"
     pagecolor="#ffffff"
     bordercolor="#000000"
     borderopacity="0.25"
     inkscape:showpageshadow="2"
     inkscape:pageopacity="0.0"
     inkscape:pagecheckerboard="0"
     inkscape:deskcolor="#d1d1d1"
     inkscape:document-units="mm"
     inkscape:zoom="0.28346768"
     inkscape:cx="1338.777"
     inkscape:cy="896.04573"
     inkscape:window-width="1920"
     inkscape:window-height="1027"
     inkscape:window-x="0"
     inkscape:window-y="25"
     inkscape:window-maximized="0"
     inkscape:current-layer="layer1" />
  <defs
     id="defs1" />
  <g
     inkscape:label="Capa 1"
     inkscape:groupmode="layer"
     id="layer1"
     transform="translate(126.75052,-32.172897)">
    <path
       style="font-weight:300;font-stretch:semi-expanded;font-size:4.77864px;font-family:'Rework Display TRIAL';-inkscape-font-specification:'Rework Display TRIAL Light Semi-Expanded';letter-spacing:0px;fill:#070423;stroke:#000000;stroke-width:1.37947;stroke-dasharray:none;stroke-opacity:0"
       d="m -94.659826,178.37411 c 6.66399,0 11.060383,-1.75853 14.947708,-4.99808 V 160.0018 h -14.02215 v 2.63777 h 10.967812 v 9.2556 c -2.776663,2.2213 -6.386323,3.56341 -11.661976,3.56341 -8.653938,0 -14.438638,-5.55334 -14.438638,-13.23548 0,-7.63575 5.55331,-13.23537 14.022141,-13.23537 4.997995,0 9.394373,1.75846 12.078473,5.92348 l 2.545294,-1.57346 c -3.193166,-5.22922 -8.792779,-7.21927 -14.577503,-7.21927 -9.995975,0 -17.354125,6.47893 -17.354125,16.10462 0,9.30177 7.17304,16.15101 17.492964,16.15101 z m 31.792772,-2.63778 c -6.293768,0 -9.810869,-3.98006 -9.810869,-9.67215 0,-0.41648 0,-0.83295 0.0465,-1.2031 h 21.10265 c -0.04651,-6.52525 -4.5815,-11.01418 -11.708266,-11.01418 -7.265597,0 -12.448714,5.13687 -12.448714,12.26367 0,7.12668 4.674059,12.26354 12.726378,12.26354 4.257547,0 8.422549,-1.99002 10.597602,-5.78472 l -2.267617,-1.34205 c -1.851099,3.10059 -5.09054,4.48899 -8.237423,4.48899 z m -0.323865,-19.43673 c 4.442658,0 7.774641,2.45259 8.468823,6.33997 h -17.446702 c 1.203217,-3.97977 4.627773,-6.33997 8.977879,-6.33997 z m 28.599614,-2.4527 c -3.887325,0 -7.31187,1.98994 -9.301823,4.85919 h -0.462757 l -0.09299,-4.39643 h -2.915994 v 23.5554 h 3.054338 v -16.33608 c 1.52717,-3.23945 5.460759,-5.22938 8.977878,-5.22938 4.720315,0 7.080492,2.31391 7.080492,8.09861 v 13.46685 h 3.05432 v -14.0221 c 0,-6.9418 -3.28573,-9.99606 -9.394373,-9.99606 z M 11.640098,177.86506 -3.5389794,146.58124 H -7.2874672 L -22.51283,177.86506 h 3.331993 l 3.563374,-7.40445 H 4.605903 l 3.5633942,7.40445 z m -17.307832,-27.9981 h 0.3238647 l 8.6076627,17.81697 H -14.275461 Z m 24.110546,27.9981 V 146.58124 H 15.24979 v 31.28382 z m 47.897386,0 -15.178991,-31.28382 h -3.748478 l -15.225498,31.28382 h 3.332116 l 3.563293,-7.40445 h 20.223469 l 3.56329,7.40445 z M 49.03249,149.86696 h 0.324501 l 8.607661,17.81697 H 40.425354 Z m 28.969825,28.50715 c 5.507019,0 10.412381,-2.59168 10.412381,-7.40446 0,-5.32205 -4.951648,-6.20127 -10.181125,-6.84913 -5.599509,-0.64793 -7.54314,-1.11069 -7.54314,-3.79476 0,-2.31391 2.776557,-3.93365 6.895305,-3.93365 3.748477,0 7.219377,1.34205 8.885345,3.65597 l 1.619643,-1.98994 c -1.851043,-2.54527 -5.692094,-4.16503 -10.042122,-4.16503 -5.969994,0 -10.45891,2.54527 -10.45891,6.57145 0,4.21133 3.146931,5.36833 9.024236,6.10868 5.6922,0.74093 8.700232,1.24958 8.700232,4.48891 0,3.10061 -3.332002,4.72028 -7.126768,4.72028 -4.48892,0 -8.052316,-1.66596 -9.995945,-4.21113 l -1.851249,1.89734 c 2.17522,3.00803 6.247567,4.90547 11.662117,4.90547 z m 23.370175,0 c 5.50691,0 10.41242,-2.59168 10.41242,-7.40446 0,-5.32205 -4.95158,-6.20127 -10.18112,-6.84913 -5.599631,-0.64793 -7.543177,-1.11069 -7.543177,-3.79476 0,-2.31391 2.776668,-3.93365 6.895407,-3.93365 3.74848,0 7.2193,1.34205 8.88534,3.65597 l 1.61968,-1.98994 c -1.85126,-2.54527 -5.69213,-4.16503 -10.04236,-4.16503 -5.969675,0 -10.458711,2.54527 -10.458711,6.57145 0,4.21133 3.14685,5.36833 9.024127,6.10868 5.692234,0.74093 8.700264,1.24958 8.700264,4.48891 0,3.10061 -3.332,4.72028 -7.1268,4.72028 -4.488883,0 -8.052285,-1.66596 -9.996041,-4.21113 l -1.851009,1.89734 c 2.174979,3.00803 6.247427,4.90547 11.66198,4.90547 z m 17.90948,-27.9055 v -3.14693 h -3.23954 v 3.14693 z m -0.0931,27.39645 v -23.5554 h -3.05421 v 23.5554 z m 15.1329,0.50946 c 5.50702,0 10.41242,-2.59159 10.41242,-7.40445 0,-5.32194 -4.95167,-6.20117 -10.18112,-6.84901 -5.59963,-0.64794 -7.54317,-1.1107 -7.54317,-3.7949 0,-2.31378 2.77657,-3.93356 6.89534,-3.93356 3.74848,0 7.21938,1.34199 8.88531,3.656 l 1.61967,-1.99003 c -1.85104,-2.54518 -5.69212,-4.16496 -10.04215,-4.16496 -5.96999,0 -10.45888,2.5452 -10.45888,6.57133 0,4.21145 3.14692,5.36838 9.02419,6.10867 5.69224,0.74097 8.70028,1.24961 8.70028,4.48894 0,3.10074 -3.33211,4.72038 -7.12681,4.72038 -4.48889,0 -8.05228,-1.66602 -9.99594,-4.21123 l -1.85121,1.89735 c 2.17511,3.00803 6.24755,4.90547 11.66207,4.90547 z m 22.2132,-2.96174 c -3.3782,0 -3.70217,-0.64795 -3.70217,-3.10064 v -15.54988 h 7.86721 v -2.4526 h -7.86721 v -6.94169 h -3.05435 v 6.94169 h -4.11873 v 2.4526 h 4.11873 v 16.05843 c 0,3.332 0.87944,5.04425 5.13677,5.04425 h 6.15496 v -2.45268 z m 16.61369,-21.47285 c -2.77667,0 -6.29379,0.74094 -9.62579,3.05432 l 1.06442,2.2212 c 3.05432,-2.12869 6.29386,-2.73035 8.37619,-2.73035 4.62779,0 7.35817,1.94371 7.35817,6.29387 v 2.63787 h -9.07042 c -6.52504,0 -9.16304,2.4527 -9.16304,6.38626 0,4.25752 3.23955,6.47893 7.82104,6.47893 4.16496,0 8.19109,-2.08263 10.22731,-5.41452 h 0.23144 l 0.18506,4.99797 h 2.82297 v -15.2717 c 0,-5.92339 -3.79487,-8.65385 -10.22742,-8.65385 z m -2.31388,22.07452 c -3.74847,0 -5.64591,-1.61979 -5.64591,-4.30397 0,-2.54515 1.52726,-4.21123 6.43264,-4.21123 h 8.70017 v 2.12884 c -1.52708,4.07244 -5.64584,6.38636 -9.4869,6.38636 z m 31.51507,-22.16713 c -3.88722,0 -7.31173,1.98995 -9.30167,4.85918 h -0.46298 l -0.0931,-4.39641 h -2.91546 v 23.55539 h 3.05436 v -16.33602 c 1.52712,-3.23943 5.46072,-5.22943 8.97791,-5.22943 4.72039,0 7.0805,2.31391 7.0805,8.09868 v 13.46677 h 3.05435 v -14.02211 c 0,-6.94168 -3.28572,-9.99605 -9.39451,-9.99605 z m 23.46291,21.56546 c -3.3783,0 -3.70227,-0.64795 -3.70227,-3.10064 v -15.54988 h 7.86721 v -2.4526 h -7.86721 v -6.94169 h -3.05426 v 6.94169 h -4.11874 v 2.4526 h 4.11874 v 16.05843 c 0,3.332 0.87842,5.04425 5.13687,5.04425 h 6.15489 v -2.45268 z m 21.33397,2.4527 v -16.2435 h 22.35209 v 16.2435 h 3.14691 v -31.28413 h -3.14691 v 12.21745 h -22.35209 v -12.21745 h -3.19321 v 31.28381 z m 51.32199,-7.2193 c -1.52715,3.23943 -5.46084,5.22936 -8.97792,5.22936 -4.72028,0 -7.08039,-2.31391 -7.08039,-8.09861 v -13.46684 h -3.05444 v 14.0221 c 0,6.94181 3.28571,9.99605 9.39438,9.99605 3.88728,0 7.31188,-2.03612 9.25561,-4.85919 h 0.50947 l 0.0931,4.39643 h 2.91532 v -23.55539 h -3.05421 z m 22.81495,-16.79886 c -4.16493,0 -7.82082,1.80494 -9.94963,5.64582 h -0.23144 v -12.91179 h -3.05431 v 31.28381 h 2.91542 l 0.0931,-5.18304 h 0.23142 c 2.12873,3.84094 5.83089,5.69209 9.99595,5.69209 6.66405,0 11.4305,-5.09045 11.4305,-12.26354 0,-7.17297 -4.76645,-12.26366 -11.4305,-12.26366 z m -0.83292,22.02822 c -4.35013,0 -8.05232,-2.36019 -9.3481,-6.38636 v -6.7565 c 0.13833,-0.41648 0.32344,-0.83296 0.50947,-1.20322 h 0.0931 l 0.0931,-0.36994 c 1.66607,-3.05435 4.9055,-4.81289 8.65398,-4.81289 5.4144,0 9.16299,3.93367 9.16299,9.76465 0,5.83093 -3.74859,9.76457 -9.16299,9.76457 z"
       id="text1"
       aria-label="GenAI Assistant Hub" />
    <path
       id="path142"
       d="M 7.6285113,38.393116 H 26.568799 V 136.57786 H 7.6285113 Z"
       style="fill:#070423;fill-opacity:1;fill-rule:nonzero;stroke:none;stroke-width:1.08932" />
    <path
       id="path143"
       d="m 80.754569,138.31768 c -24.910997,0 -42.246819,-16.84566 -42.246819,-39.649627 0,-22.80411 17.335822,-39.649475 42.246819,-39.649475 24.909551,0 42.100391,16.845365 42.100391,39.649475 0,22.803967 -17.19084,39.649627 -42.100391,39.649627 z m 0,-16.70202 c 13.692642,0 22.871571,-9.43788 22.871571,-22.947607 0,-13.505631 -9.178929,-22.948066 -22.871571,-22.948066 -13.694191,0 -23.016662,9.442435 -23.016662,22.948066 0,13.509727 9.322471,22.947607 23.016662,22.947607 z"
       style="fill:#070423;fill-opacity:1;fill-rule:nonzero;stroke:none;stroke-width:1.08932" />
    <path
       id="path144"
       d="m 182.29208,59.018578 c 21.85008,0 35.69203,17.284459 35.69203,39.649475 0,22.369407 -13.84195,39.649627 -35.69203,39.649627 -12.38331,0 -21.41279,-5.08084 -27.53162,-14.23341 h -1.16566 l -0.58287,12.49359 H 135.09248 V 38.393116 h 18.94028 v 34.42393 h 1.01791 c 6.26356,-8.85847 15.15242,-13.798468 27.24184,-13.798468 z m -5.53585,64.197502 c 13.4031,0 21.99898,-10.31492 21.99898,-24.548027 0,-14.089594 -8.59588,-24.543749 -21.99898,-24.543749 -11.79964,0 -19.51879,5.808267 -22.72347,13.360626 v 22.36932 c 3.20468,7.54915 10.92383,13.36183 22.72347,13.36183 z"
       style="fill:#070423;fill-opacity:1;fill-rule:nonzero;stroke:none;stroke-width:1.08932" />
    <path
       id="path145"
       d="m 261.91045,59.60111 c 22.28874,0 35.54808,8.714726 35.54808,28.901206 v 48.075544 h -17.62862 l -0.72851,-12.05563 h -1.16663 c -5.82461,7.55336 -16.3139,13.79545 -28.25833,13.79545 -15.88049,0 -25.7867,-7.84229 -25.7867,-22.2204 0,-14.81255 10.19941,-22.220223 31.61234,-22.220223 h 23.01665 v -4.213503 c 0,-10.458709 -6.84776,-14.088138 -18.35766,-14.088138 -6.26346,0 -15.8758,1.888861 -25.78234,7.986895 l -6.2635,-13.79547 C 239.7701,62.21346 250.84192,59.60111 261.90961,59.60111 Z m -18.93482,55.7729 c 0,4.93587 2.91411,9.00449 12.23751,9.00449 8.73983,0 16.74853,-4.21354 23.30652,-11.18769 v -6.82554 h -20.83028 c -10.78247,0 -14.71375,3.05124 -14.71375,9.00874 z"
       style="fill:#070423;fill-opacity:1;fill-rule:nonzero;stroke:none;stroke-width:1.08932" />
    <path
       id="path146"
       d="m 313.77343,38.393116 h 18.94029 v 98.184744 h -18.94029 z"
       style="fill:#070423;fill-opacity:1;fill-rule:nonzero;stroke:none;stroke-width:1.08932" />
    <path
       id="path147"
       d="M -9.4476934,76.345304 H -57.668076 v 16.267079 h 29.424925 v 21.058837 h 18.7954576 z"
       style="fill:#070423;fill-opacity:1;fill-rule:nonzero;stroke:none;stroke-width:1.08932" />
    <path
       id="path148"
       d="m -54.757369,120.21166 c -23.016633,0 -37.437215,-13.65481 -37.437215,-32.684265 0,-18.880249 12.527305,-32.680061 34.233362,-32.680061 11.152625,0 20.590627,3.354026 27.152703,10.455496 l 16.003384,-10.050091 c -9.915159,-13.221204 -27.097117,-18.412937 -43.006748,-18.412937 -30.293316,0 -54.339217,18.880348 -54.339217,50.683241 0,28.906657 22.57747,50.836827 55.649597,50.836827 3.275611,0 6.429302,-0.14894 9.467456,-0.44645 V 119.7827 c -2.565371,0.28841 -5.144878,0.4289 -7.723322,0.4289 z"
       style="fill:#070423;fill-opacity:1;fill-rule:nonzero;stroke:none;stroke-width:1.08932" />
  </g>
</svg>
