<svg width="308" height="70" viewBox="0 0 618 141" fill="none" xmlns="http://www.w3.org/2000/svg">
<path d="M192.707 138.521H166.399V2.16104H192.707V138.521Z" fill="#ffffff"/>
<path d="M267.984 140.942C233.379 140.942 209.297 117.543 209.297 85.8734C209.297 54.2039 233.379 30.8048 267.984 30.8048C302.589 30.8048 326.469 54.2039 326.469 85.8734C326.469 117.543 302.589 140.942 267.984 140.942ZM267.984 117.745C287.007 117.745 299.756 104.633 299.756 85.8734C299.756 67.1138 287.007 54.0022 267.984 54.0022C248.961 54.0022 236.009 67.1138 236.009 85.8734C236.009 104.633 248.961 117.745 267.984 117.745Z" fill="#ffffff"/>
<path d="M409.04 30.8048C439.396 30.8048 458.621 54.8091 458.621 85.8734C458.621 116.938 439.396 140.942 409.04 140.942C391.839 140.942 379.292 133.882 370.793 121.174H369.174L368.364 138.521H343.473V2.16104H369.781V49.9679H371.197C379.899 37.6632 392.244 30.8048 409.04 30.8048ZM401.35 119.964C419.968 119.964 431.908 105.642 431.908 85.8734C431.908 66.3069 419.968 51.7833 401.35 51.7833C384.958 51.7833 374.233 59.852 369.781 70.3412V101.406C374.233 111.895 384.958 119.964 401.35 119.964Z" fill="#ffffff"/>
<path d="M519.647 31.6117C550.609 31.6117 569.025 43.7146 569.025 71.7532V138.521H544.538L543.526 121.779H541.907C533.813 132.268 519.242 140.942 502.648 140.942C480.589 140.942 466.828 130.049 466.828 110.079C466.828 89.5043 480.994 79.2168 510.742 79.2168H542.717V73.367C542.717 58.8434 533.205 53.8005 517.218 53.8005C508.516 53.8005 495.16 56.4228 481.399 64.8949L472.697 45.7318C488.886 35.2426 504.267 31.6117 519.647 31.6117ZM493.339 109.071C493.339 115.929 497.386 121.577 510.338 121.577C522.48 121.577 533.61 115.727 542.717 106.045V96.5644H513.778C498.803 96.5644 493.339 100.8 493.339 109.071Z" fill="#ffffff"/>
<path d="M618 138.521H591.692V2.16104H618V138.521Z" fill="#ffffff"/>
<path d="M142.674 54.8679H75.6891V77.4601H116.567V106.708H142.674V54.8679Z" fill="#ffffff"/>
<path d="M79.7334 115.792C47.7617 115.792 27.7251 96.8276 27.7251 70.4014C27.7251 44.181 45.1286 25.0153 75.2847 25.0153C90.7736 25.0153 103.888 29.6684 113 39.5322L135.235 25.5771C121.459 7.21339 97.593 0 75.4869 0C33.4087 0 0 26.2247 0 70.3971C0 110.542 31.3693 141 77.3068 141C81.8632 141 86.2388 140.79 90.4595 140.378V115.196C86.8984 115.597 83.3172 115.796 79.7334 115.792Z" fill="#ffffff"/>
</svg>
