<?xml version="1.0" encoding="UTF-8" standalone="no"?>
<!-- Created with Inkscape (http://www.inkscape.org/) -->

<svg
   width="45.936913mm"
   height="14.650392mm"
   viewBox="0 0 45.936912 14.650391"
   version="1.1"
   id="svg1"
   inkscape:version="1.4 (e7c3feb1, 2024-10-09)"
   sodipodi:docname="global_genai.svg"
   xmlns:inkscape="http://www.inkscape.org/namespaces/inkscape"
   xmlns:sodipodi="http://sodipodi.sourceforge.net/DTD/sodipodi-0.dtd"
   xmlns="http://www.w3.org/2000/svg"
   xmlns:svg="http://www.w3.org/2000/svg">
  <sodipodi:namedview
     id="namedview1"
     pagecolor="#ffffff"
     bordercolor="#000000"
     borderopacity="0.25"
     inkscape:showpageshadow="2"
     inkscape:pageopacity="0.0"
     inkscape:pagecheckerboard="0"
     inkscape:deskcolor="#d1d1d1"
     inkscape:document-units="mm"
     inkscape:zoom="3.2070706"
     inkscape:cx="90.892915"
     inkscape:cy="91.672443"
     inkscape:window-width="1920"
     inkscape:window-height="1027"
     inkscape:window-x="0"
     inkscape:window-y="25"
     inkscape:window-maximized="0"
     inkscape:current-layer="layer1" />
  <defs
     id="defs1" />
  <g
     inkscape:label="Capa 1"
     inkscape:groupmode="layer"
     id="layer1"
     transform="translate(-87.312495,-100.27709)">
    <path
       style="font-weight:300;font-stretch:semi-expanded;font-size:4.77864px;font-family:'Rework Display TRIAL';-inkscape-font-specification:'Rework Display TRIAL Light Semi-Expanded';letter-spacing:0px;fill:#070423;stroke-width:0.0789849"
       d="m 90.449386,114.43246 c 0.644856,0 1.070283,-0.17017 1.446449,-0.48365 v -1.29419 H 90.53895 v 0.25525 h 1.061325 v 0.89564 c -0.26869,0.21495 -0.617987,0.34482 -1.128498,0.34482 -0.837417,0 -1.397188,-0.53738 -1.397188,-1.28076 0,-0.73889 0.537379,-1.28075 1.356885,-1.28075 0.483642,0 0.909068,0.17016 1.168801,0.5732 l 0.246301,-0.15226 c -0.308994,-0.50602 -0.850853,-0.69859 -1.410625,-0.69859 -0.967283,0 -1.679312,0.62695 -1.679312,1.5584 0,0.90011 0.694116,1.56289 1.692747,1.56289 z m 3.0765,-0.25525 c -0.609031,0 -0.949371,-0.38514 -0.949371,-0.93595 0,-0.0403 0,-0.0806 0.0045,-0.11642 h 2.042046 c -0.0045,-0.63143 -0.443339,-1.06581 -1.132977,-1.06581 -0.703072,0 -1.204628,0.49708 -1.204628,1.18672 0,0.68963 0.452296,1.18671 1.231497,1.18671 0.411991,0 0.815027,-0.19257 1.025501,-0.55977 l -0.219431,-0.12987 c -0.179126,0.30004 -0.492598,0.43439 -0.797113,0.43439 z m -0.03134,-1.88084 c 0.429904,0 0.752331,0.23733 0.819505,0.6135 h -1.68827 c 0.116432,-0.38511 0.447817,-0.6135 0.868765,-0.6135 z m 2.767507,-0.23734 c -0.376166,0 -0.70755,0.19256 -0.900112,0.47021 h -0.04478 l -0.009,-0.42543 h -0.282173 v 2.27939 h 0.29556 v -1.5808 c 0.14778,-0.31347 0.528423,-0.50603 0.868765,-0.50603 0.456772,0 0.68516,0.22391 0.68516,0.78368 v 1.30315 h 0.295558 v -1.35688 c 0,-0.67174 -0.317951,-0.96729 -0.909068,-0.96729 z m 4.473687,2.32417 -1.468838,-3.02725 h -0.362731 l -1.473317,3.02725 h 0.322428 l 0.344818,-0.71651 h 1.95696 l 0.34482,0.71651 z m -1.674832,-2.7093 h 0.03134 l 0.83294,1.7241 h -1.697226 z m 2.333112,2.7093 v -3.02725 h -0.30898 v 3.02725 z m 4.6349,0 -1.46883,-3.02725 h -0.36273 l -1.47333,3.02725 h 0.32244 l 0.34481,-0.71651 h 1.95697 l 0.34481,0.71651 z m -1.67482,-2.7093 h 0.0314 l 0.83294,1.7241 h -1.69723 z m 2.80333,2.75856 c 0.5329,0 1.00758,-0.25079 1.00758,-0.71651 0,-0.515 -0.47916,-0.60008 -0.9852,-0.66277 -0.54185,-0.0627 -0.72993,-0.10748 -0.72993,-0.36721 0,-0.22391 0.26868,-0.38065 0.66724,-0.38065 0.36273,0 0.6986,0.12987 0.85981,0.35378 l 0.15673,-0.19256 c -0.17912,-0.2463 -0.55081,-0.40304 -0.97175,-0.40304 -0.5777,0 -1.01208,0.2463 -1.01208,0.6359 0,0.40752 0.30452,0.51948 0.87325,0.59112 0.55082,0.0717 0.8419,0.12092 0.8419,0.43438 0,0.30004 -0.32243,0.45677 -0.68964,0.45677 -0.43438,0 -0.7792,-0.16121 -0.96728,-0.4075 l -0.17914,0.1836 c 0.21049,0.29108 0.60456,0.47469 1.12851,0.47469 z m 2.26147,0 c 0.53289,0 1.00758,-0.25079 1.00758,-0.71651 0,-0.515 -0.47915,-0.60008 -0.9852,-0.66277 -0.54186,-0.0627 -0.72993,-0.10748 -0.72993,-0.36721 0,-0.22391 0.26869,-0.38065 0.66725,-0.38065 0.36273,0 0.69859,0.12987 0.85981,0.35378 l 0.15673,-0.19256 c -0.17914,-0.2463 -0.55081,-0.40304 -0.97177,-0.40304 -0.57767,0 -1.01206,0.2463 -1.01206,0.6359 0,0.40752 0.30451,0.51948 0.87324,0.59112 0.55082,0.0717 0.8419,0.12092 0.8419,0.43438 0,0.30004 -0.32243,0.45677 -0.68964,0.45677 -0.43438,0 -0.7792,-0.16121 -0.96729,-0.4075 l -0.17912,0.1836 c 0.21047,0.29108 0.60455,0.47469 1.1285,0.47469 z m 1.73305,-2.70034 v -0.30452 h -0.31348 v 0.30452 z m -0.009,2.65108 v -2.27939 h -0.29555 v 2.27939 z m 1.46437,0.0493 c 0.5329,0 1.00758,-0.25078 1.00758,-0.71651 0,-0.51499 -0.47916,-0.60007 -0.9852,-0.66276 -0.54186,-0.0627 -0.72993,-0.10748 -0.72993,-0.36722 0,-0.2239 0.26868,-0.38064 0.66724,-0.38064 0.36273,0 0.6986,0.12986 0.85981,0.35378 l 0.15673,-0.19257 c -0.17912,-0.24629 -0.55081,-0.40303 -0.97175,-0.40303 -0.5777,0 -1.01208,0.24629 -1.01208,0.63589 0,0.40753 0.30452,0.51948 0.87325,0.59112 0.55082,0.0717 0.8419,0.12092 0.8419,0.43438 0,0.30005 -0.32244,0.45678 -0.68964,0.45678 -0.43438,0 -0.7792,-0.16122 -0.96728,-0.40751 l -0.17914,0.1836 c 0.21048,0.29108 0.60456,0.47469 1.12851,0.47469 z m 2.14951,-0.2866 c -0.3269,0 -0.35825,-0.0627 -0.35825,-0.30004 v -1.50472 h 0.76129 v -0.23733 h -0.76129 v -0.67173 h -0.29556 v 0.67173 h -0.39856 v 0.23733 h 0.39856 v 1.55393 c 0,0.32243 0.0851,0.48812 0.49707,0.48812 h 0.5956 v -0.23734 z m 1.60766,-2.07787 c -0.26869,0 -0.60903,0.0717 -0.93146,0.29556 l 0.103,0.21494 c 0.29556,-0.20599 0.60904,-0.26421 0.81054,-0.26421 0.44782,0 0.71203,0.18809 0.71203,0.60904 v 0.25526 h -0.87772 c -0.63141,0 -0.88668,0.23734 -0.88668,0.61798 0,0.41199 0.31348,0.62695 0.75682,0.62695 0.40303,0 0.79263,-0.20153 0.98967,-0.52395 h 0.0224 l 0.0179,0.48364 h 0.27317 v -1.4778 c 0,-0.57319 -0.36722,-0.83741 -0.98968,-0.83741 z m -0.22391,2.13609 c -0.36273,0 -0.54634,-0.15674 -0.54634,-0.41648 0,-0.24629 0.14779,-0.40751 0.62247,-0.40751 h 0.84189 v 0.206 c -0.14777,0.39408 -0.54633,0.61799 -0.91802,0.61799 z m 3.04963,-2.14505 c -0.37616,0 -0.70754,0.19256 -0.9001,0.47021 h -0.0448 l -0.009,-0.42543 h -0.28212 v 2.27939 h 0.29556 v -1.58079 c 0.14778,-0.31347 0.52842,-0.50604 0.86877,-0.50604 0.45678,0 0.68516,0.22391 0.68516,0.78369 v 1.30314 h 0.29556 v -1.35688 c 0,-0.67173 -0.31795,-0.96729 -0.90908,-0.96729 z m 2.27044,2.08683 c -0.32691,0 -0.35826,-0.0627 -0.35826,-0.30004 v -1.50472 h 0.76129 v -0.23733 h -0.76129 v -0.67173 h -0.29555 v 0.67173 h -0.39856 v 0.23733 h 0.39856 v 1.55393 c 0,0.32243 0.085,0.48812 0.49708,0.48812 h 0.59559 v -0.23734 z m 2.06443,0.23734 v -1.57184 h 2.16295 v 1.57184 h 0.30452 v -3.02728 h -0.30452 v 1.18225 h -2.16295 v -1.18225 h -0.309 v 3.02725 z m 4.96629,-0.69859 c -0.14778,0.31347 -0.52843,0.50603 -0.86877,0.50603 -0.45677,0 -0.68515,-0.22391 -0.68515,-0.78368 v -1.30315 h -0.29557 v 1.35688 c 0,0.67174 0.31795,0.96729 0.90907,0.96729 0.37616,0 0.70755,-0.19703 0.89564,-0.47021 h 0.0493 l 0.009,0.42543 h 0.28211 v -2.27939 h -0.29555 z m 2.20774,-1.62558 c -0.40303,0 -0.7568,0.17466 -0.9628,0.54633 h -0.0224 v -1.24944 h -0.29556 v 3.02725 h 0.28212 l 0.009,-0.50155 h 0.0224 c 0.20599,0.37168 0.56424,0.55081 0.96728,0.55081 0.64486,0 1.1061,-0.49259 1.1061,-1.18671 0,-0.69411 -0.46124,-1.18672 -1.1061,-1.18672 z m -0.0806,2.13161 c -0.42095,0 -0.7792,-0.22839 -0.90459,-0.61799 v -0.65381 c 0.0134,-0.0403 0.0313,-0.0806 0.0493,-0.11643 h 0.009 l 0.009,-0.0358 c 0.16122,-0.29556 0.47469,-0.46573 0.83742,-0.46573 0.52394,0 0.88668,0.38065 0.88668,0.9449 0,0.56424 -0.36274,0.94489 -0.88668,0.94489 z"
       id="text1"
       aria-label="GenAI Assistant Hub" />
    <path
       id="path142"
       d="m 100.34755,100.88688 h 1.8328 v 9.50107 h -1.8328 z"
       style="fill:#070423;fill-opacity:1;fill-rule:nonzero;stroke:none;stroke-width:0.105411" />
    <path
       id="path143"
       d="m 107.42376,110.55631 c -2.41057,0 -4.08811,-1.63011 -4.08811,-3.83679 0,-2.20669 1.67754,-3.83677 4.08811,-3.83677 2.41043,0 4.07394,1.63008 4.07394,3.83677 0,2.20668 -1.66351,3.83679 -4.07394,3.83679 z m 0,-1.61621 c 1.325,0 2.21322,-0.91328 2.21322,-2.22058 0,-1.3069 -0.88822,-2.22062 -2.21322,-2.22062 -1.32515,0 -2.22726,0.91372 -2.22726,2.22062 0,1.3073 0.90211,2.22058 2.22726,2.22058 z"
       style="fill:#070423;fill-opacity:1;fill-rule:nonzero;stroke:none;stroke-width:0.105411" />
    <path
       id="path144"
       d="m 117.24927,102.88275 c 2.11437,0 3.45382,1.67257 3.45382,3.83677 0,2.16463 -1.33945,3.83679 -3.45382,3.83679 -1.1983,0 -2.07206,-0.49166 -2.66416,-1.37733 h -0.1128 l -0.0564,1.20897 h -1.73402 v -9.50107 h 1.8328 v 3.33111 h 0.0985 c 0.60611,-0.85721 1.46626,-1.33524 2.63612,-1.33524 z m -0.53569,6.21222 c 1.29698,0 2.12878,-0.99815 2.12878,-2.37545 0,-1.36341 -0.8318,-2.37503 -2.12878,-2.37503 -1.14182,0 -1.88878,0.56205 -2.19889,1.29287 v 2.16462 c 0.31011,0.73051 1.05707,1.29299 2.19889,1.29299 z"
       style="fill:#070423;fill-opacity:1;fill-rule:nonzero;stroke:none;stroke-width:0.105411" />
    <path
       id="path145"
       d="m 124.95372,102.93912 c 2.15682,0 3.43989,0.8433 3.43989,2.79669 v 4.65214 h -1.70587 l -0.0705,-1.16659 h -0.11289 c -0.56363,0.73092 -1.57865,1.33495 -2.73448,1.33495 -1.53671,0 -2.49531,-0.75888 -2.49531,-2.15021 0,-1.43337 0.98697,-2.15019 3.05904,-2.15019 h 2.22726 v -0.40773 c 0,-1.01206 -0.66264,-1.36327 -1.77642,-1.36327 -0.6061,0 -1.53626,0.18278 -2.49489,0.77287 l -0.6061,-1.33495 c 1.12781,-0.73092 2.1992,-0.98371 3.27019,-0.98371 z m -1.83227,5.39699 c 0,0.47763 0.28199,0.87134 1.18419,0.87134 0.84573,0 1.62071,-0.40773 2.25531,-1.0826 v -0.66049 h -2.01569 c -1.04339,0 -1.42381,0.29526 -1.42381,0.87175 z"
       style="fill:#070423;fill-opacity:1;fill-rule:nonzero;stroke:none;stroke-width:0.105411" />
    <path
       id="path146"
       d="m 129.97236,100.88688 h 1.8328 v 9.50107 h -1.8328 z"
       style="fill:#070423;fill-opacity:1;fill-rule:nonzero;stroke:none;stroke-width:0.105411" />
    <path
       id="path147"
       d="m 98.695132,104.55941 h -4.666155 v 1.57412 h 2.84737 v 2.03781 h 1.818785 z"
       style="fill:#070423;fill-opacity:1;fill-rule:nonzero;stroke:none;stroke-width:0.105411" />
    <path
       id="path148"
       d="m 94.310638,108.80424 c -2.227257,0 -3.622697,-1.32134 -3.622697,-3.16277 0,-1.82699 1.212233,-3.16236 3.312669,-3.16236 1.079209,0 1.992499,0.32456 2.627493,1.01175 l 1.548604,-0.97252 c -0.959463,-1.27938 -2.622114,-1.78177 -4.161646,-1.78177 -2.931402,0 -5.258258,1.827 -5.258258,4.90448 0,2.79722 2.18476,4.91934 5.38506,4.91934 0.316972,0 0.622146,-0.0144 0.91614,-0.0432 v -1.75446 c -0.248244,0.0279 -0.497856,0.0415 -0.747365,0.0415 z"
       style="fill:#070423;fill-opacity:1;fill-rule:nonzero;stroke:none;stroke-width:0.105411" />
  </g>
</svg>
