<?xml version="1.0" encoding="UTF-8" standalone="no"?>
<!-- Created with Inkscape (http://www.inkscape.org/) -->

<svg
   width="24.576361mm"
   height="5.2698398mm"
   viewBox="0 0 24.576361 5.2698398"
   version="1.1"
   id="svg1"
   inkscape:version="1.4 (e7c3feb1, 2024-10-09)"
   sodipodi:docname="ingeteam.svg"
   xmlns:inkscape="http://www.inkscape.org/namespaces/inkscape"
   xmlns:sodipodi="http://sodipodi.sourceforge.net/DTD/sodipodi-0.dtd"
   xmlns="http://www.w3.org/2000/svg"
   xmlns:svg="http://www.w3.org/2000/svg">
  <sodipodi:namedview
     id="namedview1"
     pagecolor="#ffffff"
     bordercolor="#000000"
     borderopacity="0.25"
     inkscape:showpageshadow="2"
     inkscape:pageopacity="0.0"
     inkscape:pagecheckerboard="0"
     inkscape:deskcolor="#d1d1d1"
     inkscape:document-units="mm"
     inkscape:zoom="0.80176768"
     inkscape:cx="46.771654"
     inkscape:cy="9.9779528"
     inkscape:window-width="1200"
     inkscape:window-height="1027"
     inkscape:window-x="0"
     inkscape:window-y="25"
     inkscape:window-maximized="0"
     inkscape:current-layer="layer1" />
  <defs
     id="defs1" />
  <g
     inkscape:label="Capa 1"
     inkscape:groupmode="layer"
     id="layer1"
     transform="translate(-92.86875,-145.78541)">
    <path
       id="path243"
       d="m 115.64276,147.62917 -0.32777,2.07749 h -0.94207 l 0.29922,-1.88455 c 0.004,-0.0659 0.0122,-0.12745 0.0122,-0.1846 0,-0.22148 -0.14365,-0.32779 -0.37693,-0.32779 -0.11867,0 -0.21709,0.0164 -0.35634,0.0615 l -0.0655,0.0201 -0.36862,2.31515 h -0.94205 l 0.41338,-2.62233 0.96669,-0.31946 -0.0408,0.25006 0.20473,-0.0984 c 0.41395,-0.20079 0.56105,-0.24162 0.79886,-0.24162 0.34004,0 0.50393,0.0655 0.63093,0.23329 l 0.0572,0.0738 0.0821,-0.0369 c 0.43812,-0.18852 0.75364,-0.28255 0.96671,-0.28255 0.51977,0 0.79041,0.254 0.79041,0.71271 0,0.14769 -0.0122,0.29088 -0.0369,0.44691 l -0.30316,1.88849 H 116.163 l 0.29874,-1.88458 c 0.0124,-0.0698 0.0206,-0.13925 0.0206,-0.18851 0,-0.21709 -0.13928,-0.33171 -0.37706,-0.33171 -0.11856,0 -0.22497,0.0201 -0.36862,0.0738 l -0.0777,0.0285 v 0.0862 z m -5.1734,0.88932 c 0,0.35634 0.14319,0.57738 0.44646,0.57738 0.09,0 0.19235,-0.0201 0.29088,-0.0571 l 0.0655,-0.0246 0.2785,-1.78208 -0.127,-0.008 c -0.0201,0 -0.0408,0 -0.0655,0 -0.56108,0 -0.88887,0.52867 -0.88887,1.29493 m -0.95038,0.094 c 0,-1.1226 0.69247,-1.93373 1.61382,-1.93373 0.22543,0 0.45871,0.0452 0.7171,0.13927 l 0.0325,0.0122 0.68413,-0.13531 -0.4749,3.01559 h -0.90123 l 0.0492,-0.30327 -0.21304,0.12306 c -0.31946,0.18415 -0.46265,0.22937 -0.64725,0.22937 -0.54049,-0.004 -0.86029,-0.3972 -0.86029,-1.14724 m -1.38412,-1.5199 c -0.34454,0 -0.54485,0.29089 -0.63092,0.78661 l -0.0246,0.13925 0.14319,-0.004 c 0.54094,-0.0164 0.83577,-0.20484 0.83577,-0.61867 -0.004,-0.19246 -0.127,-0.30327 -0.3234,-0.30327 m -0.30753,2.66319 c -0.89291,0 -1.35162,-0.41394 -1.35162,-1.20044 0,-1.13091 0.73329,-1.8805 1.8433,-1.8805 0.6595,0 0.97896,0.25781 0.97896,0.71662 0,0.66784 -0.54094,1.04487 -1.6469,1.04487 h -0.225 l -0.004,0.1107 c 0,0.0246 0,0.0452 0,0.0655 0,0.42227 0.22103,0.60246 0.69202,0.60246 0.2623,0 0.39325,-0.0124 0.79885,-0.0822 l -0.0699,0.43857 c -0.42574,0.13925 -0.67974,0.18447 -1.01584,0.18447 m -2.95722,-3.64257 0.99526,-0.32779 -0.15949,0.9794 h 0.76589 l -0.0778,0.49168 h -0.76187 l -0.21314,1.37668 c -0.0122,0.0615 -0.0161,0.13094 -0.0161,0.17616 0,0.22937 0.14319,0.34015 0.38494,0.34015 0.0984,0 0.21304,-0.0124 0.31538,-0.033 l -0.0738,0.45479 c -0.36031,0.13092 -0.5774,0.18008 -0.80283,0.18008 -0.56938,0 -0.80706,-0.20471 -0.80706,-0.63892 0,-0.086 0.0122,-0.23373 0.0369,-0.36073 l 0.23376,-1.49524 h -0.31554 l 0.0778,-0.49168 h 0.31541 z m -2.07253,0.97938 c -0.34409,0 -0.5488,0.29088 -0.63104,0.78661 l -0.0246,0.13925 0.14364,-0.004 c 0.54049,-0.0167 0.83532,-0.20484 0.83532,-0.61868 -0.004,-0.19246 -0.127,-0.30326 -0.3234,-0.30326 m -0.30324,2.66319 c -0.89281,0 -1.35152,-0.41394 -1.35152,-1.20044 0,-1.13091 0.73284,-1.8805 1.84721,-1.8805 0.6595,0 0.97896,0.25781 0.97896,0.71662 0,0.66784 -0.53655,1.04487 -1.64687,1.04487 h -0.22497 l -0.004,0.1107 c 0,0.0246 0,0.0452 0,0.0655 0,0.42227 0.22148,0.60245 0.69246,0.60245 0.26231,0 0.39323,-0.0124 0.79886,-0.0822 l -0.0699,0.43857 c -0.43418,0.13925 -0.68807,0.18447 -1.01989,0.18447 m -3.72337,-1.22494 c 0,0.35623 0.15557,0.58568 0.45873,0.58568 0.0901,0 0.19685,-0.0206 0.31147,-0.0615 l 0.0655,-0.0246 0.28649,-1.79055 -0.13092,-0.004 c -0.0161,0 -0.0369,0 -0.0694,0 -0.58179,-0.008 -0.92183,0.52461 -0.92183,1.29492 m -0.95444,0.10628 c 0,-1.13495 0.70485,-1.95442 1.6469,-1.95442 0.20474,0 0.38492,0.033 0.72057,0.13533 l 0.0246,0.008 0.69641,-0.11067 -0.49956,3.17497 c -0.12698,0.82791 -0.56108,1.16401 -1.55239,1.16401 -0.14365,0 -0.45871,-0.0492 -0.7416,-0.0984 -0.127,-0.0206 -0.2703,-0.0493 -0.39336,-0.0738 l 0.60246,-0.42621 c 0.0984,0.008 0.19245,0.0122 0.29876,0.0122 0.59402,0 0.78256,-0.15997 0.87659,-0.72935 l 0.0452,-0.31946 -0.20079,0.10676 c -0.37256,0.19637 -0.51631,0.24566 -0.67569,0.24566 -0.52036,0 -0.84815,-0.40563 -0.84815,-1.13498 m -2.0805,-1.62224 0.20484,-0.0984 c 0.39717,-0.19246 0.56499,-0.24162 0.76578,-0.24162 0.49168,0 0.75759,0.25781 0.75759,0.70427 0,0.14769 -0.0124,0.29133 -0.0366,0.45082 l -0.29525,1.87669 h -0.94207 l 0.29482,-1.88455 c 0.0124,-0.0699 0.0206,-0.13139 0.0206,-0.18854 0,-0.22148 -0.14319,-0.32777 -0.37693,-0.32777 -0.11866,0 -0.21709,0.0161 -0.35634,0.0615 l -0.0655,0.0201 -0.36872,2.31481 h -0.94205 l 0.41394,-2.62189 0.97062,-0.31946 z m -1.90077,2.69174 h -0.96668 l 0.56949,-3.585 1.01978,-0.3362 z"
       style="fill:#c00630;fill-opacity:1;fill-rule:nonzero;stroke:none;stroke-width:0.112484" />
    <path
       id="path244"
       d="m 100.72224,151.03804 0.2026,-0.96626 h 0.12834 l -0.20169,0.96626 z m 0.36389,0 0.20259,-0.96626 h 0.1252 l 0.16253,0.36243 c 0.0497,0.11081 0.0892,0.20394 0.11822,0.27953 0.0167,0.0439 0.036,0.10327 0.0581,0.17796 0.0119,-0.0813 0.0268,-0.16526 0.0448,-0.25175 l 0.11867,-0.56817 h 0.12565 l -0.20167,0.96626 h -0.12789 l -0.23996,-0.55851 c -0.0425,-0.0984 -0.0755,-0.18502 -0.0992,-0.26016 -0.007,0.0629 -0.0193,0.1397 -0.0383,0.23116 l -0.1226,0.58751 z m 1.46184,-0.381 0.0233,-0.10943 h 0.42317 l -0.0827,0.39367 c -0.0531,0.0334 -0.11372,0.0606 -0.18187,0.0818 -0.0681,0.0212 -0.13486,0.0316 -0.2008,0.0316 -0.1406,0 -0.24566,-0.0426 -0.31506,-0.12745 -0.0584,-0.0716 -0.0878,-0.16388 -0.0878,-0.27638 0,-0.11597 0.0254,-0.22148 0.0765,-0.31631 0.0514,-0.0954 0.11596,-0.16568 0.1937,-0.2109 0.0783,-0.0458 0.16523,-0.0686 0.26061,-0.0686 0.0685,0 0.13005,0.0127 0.18447,0.0378 0.0546,0.0246 0.0963,0.0576 0.12531,0.0993 0.0289,0.0413 0.0496,0.0954 0.0623,0.16208 l -0.12655,0.014 c -0.0135,-0.0663 -0.0417,-0.11732 -0.0848,-0.15243 -0.0426,-0.0355 -0.0975,-0.0532 -0.16468,-0.0532 -0.07,0 -0.13541,0.019 -0.19606,0.0571 -0.0606,0.0378 -0.10887,0.0954 -0.14544,0.17222 -0.036,0.0765 -0.054,0.16354 -0.054,0.26106 0,0.0971 0.0238,0.17042 0.0717,0.22014 0.0478,0.0496 0.11416,0.0747 0.19851,0.0747 0.0839,0 0.17402,-0.0281 0.27075,-0.0834 l 0.0434,-0.20743 z m 0.55761,0.381 0.20212,-0.96626 h 0.69731 l -0.0228,0.1098 h -0.56816 l -0.0632,0.30054 h 0.55364 l -0.0233,0.11036 h -0.55354 l -0.0695,0.3361 h 0.6082 l -0.0233,0.10946 z m 1.0677,0 -0.0593,-0.96626 h 0.13094 l 0.0225,0.47763 c 0.003,0.0228 0.003,0.0848 0.007,0.18581 0,0.0281 0,0.0479 0,0.0593 0,0.007 0,0.0295 0,0.0656 0.0537,-0.10991 0.0924,-0.1873 0.1161,-0.23207 l 0.29392,-0.55623 h 0.13317 l 0.0321,0.56457 c 0.003,0.0646 0.006,0.1424 0.007,0.23328 0.008,-0.0225 0.022,-0.0558 0.0422,-0.10009 0.0321,-0.0717 0.0558,-0.12261 0.0712,-0.15333 l 0.27548,-0.54443 h 0.13182 l -0.49168,0.96626 h -0.13835 l -0.0326,-0.58539 c -0.003,-0.05 -0.005,-0.11158 -0.007,-0.18447 -0.0268,0.0611 -0.0493,0.10856 -0.0673,0.14229 l -0.33475,0.62757 h -0.13316 z m 1.12316,0 0.20201,-0.96626 h 0.1288 l -0.20169,0.96626 z m 0.36378,0 0.20211,-0.96626 h 0.1252 l 0.16301,0.36243 c 0.0497,0.11081 0.0887,0.20394 0.11777,0.27953 0.0167,0.0439 0.036,0.10327 0.058,0.17796 0.0119,-0.0813 0.0268,-0.16526 0.0448,-0.25175 l 0.11867,-0.56817 h 0.12565 l -0.20124,0.96626 h -0.1279 l -0.23993,-0.55851 c -0.0425,-0.0984 -0.0759,-0.18502 -0.0997,-0.26016 -0.007,0.0629 -0.0193,0.1397 -0.0382,0.23116 l -0.1226,0.58751 z m 0.96837,0 0.20169,-0.96626 h 0.29133 c 0.0699,0 0.12351,0.005 0.1604,0.0151 0.0528,0.0135 0.0975,0.0381 0.13488,0.0734 0.0373,0.0346 0.0655,0.0781 0.0844,0.13046 0.0188,0.0523 0.0286,0.1107 0.0286,0.17582 0,0.0777 -0.0119,0.14893 -0.0355,0.21304 -0.0233,0.0637 -0.0541,0.11991 -0.0924,0.16872 -0.0378,0.0484 -0.0777,0.0862 -0.11945,0.1143 -0.0413,0.0272 -0.0901,0.0475 -0.1468,0.0606 -0.0431,0.01 -0.0962,0.0151 -0.15904,0.0151 z m 0.15253,-0.10946 h 0.15285 c 0.069,0 0.13005,-0.007 0.1837,-0.0193 0.0334,-0.008 0.062,-0.0193 0.0857,-0.0348 0.0312,-0.0196 0.0597,-0.0461 0.0852,-0.0786 0.0334,-0.0431 0.0598,-0.0918 0.0795,-0.14666 0.0204,-0.0555 0.0303,-0.11824 0.0303,-0.18854 0,-0.0783 -0.0135,-0.13846 -0.0408,-0.18019 -0.0272,-0.0422 -0.062,-0.0699 -0.10417,-0.0835 -0.0311,-0.0101 -0.0795,-0.0154 -0.14544,-0.0154 h -0.17097 z m 1.06027,0.10946 0.54792,-0.96626 h 0.15195 l 0.15952,0.96626 h -0.1252 l -0.0466,-0.27818 h -0.3911 l -0.15468,0.27818 z m 0.35187,-0.37796 h 0.3199 l -0.0378,-0.24251 c -0.0146,-0.0963 -0.0233,-0.17616 -0.0268,-0.24038 -0.022,0.0553 -0.054,0.12081 -0.0963,0.19685 z m 0.65251,0.37796 0.20259,-0.96626 h 0.12835 l -0.20169,0.96626 z m 0.59584,0 0.54745,-0.96626 h 0.15254 l 0.15949,0.96626 h -0.12531 l -0.047,-0.27818 h -0.39055 l -0.1551,0.27818 z m 0.35195,-0.37796 h 0.31946 l -0.0373,-0.24251 c -0.0146,-0.0963 -0.0238,-0.17616 -0.0272,-0.24038 -0.022,0.0553 -0.0541,0.12081 -0.0963,0.19685 z m 0.67009,0.0655 0.12652,-0.0119 -0.003,0.0334 c 0,0.0373 0.009,0.0715 0.0259,0.10279 0.0172,0.0307 0.0453,0.0549 0.0848,0.072 0.0395,0.0167 0.0865,0.0251 0.14105,0.0251 0.0773,0 0.13623,-0.0172 0.17661,-0.051 0.0408,-0.0338 0.0615,-0.0726 0.0615,-0.11597 0,-0.0304 -0.0111,-0.0581 -0.0325,-0.0831 -0.022,-0.0246 -0.0818,-0.0579 -0.17976,-0.10009 -0.076,-0.033 -0.1279,-0.0581 -0.15557,-0.0756 -0.0434,-0.0286 -0.0756,-0.0597 -0.0962,-0.0931 -0.0206,-0.0339 -0.0312,-0.0721 -0.0312,-0.1152 0,-0.0496 0.0138,-0.0945 0.0409,-0.13441 0.0272,-0.0401 0.0671,-0.0707 0.11946,-0.0918 0.0528,-0.0212 0.11202,-0.0317 0.17796,-0.0317 0.0786,0 0.14499,0.0132 0.19909,0.0396 0.054,0.0265 0.0931,0.0615 0.11732,0.10541 0.0246,0.044 0.0369,0.0862 0.0369,0.1261 0,0.004 0,0.0106 0,0.0199 l -0.1243,0.01 c 0,-0.0272 -0.003,-0.0484 -0.007,-0.0637 -0.009,-0.0269 -0.0225,-0.0497 -0.0408,-0.0682 -0.0185,-0.0185 -0.044,-0.033 -0.0765,-0.0439 -0.0321,-0.0114 -0.068,-0.0172 -0.10811,-0.0172 -0.0703,0 -0.12473,0.0159 -0.16388,0.0475 -0.0298,0.0241 -0.0448,0.0563 -0.0448,0.0963 0,0.0238 0.006,0.0448 0.0185,0.0637 0.0122,0.0185 0.0343,0.0369 0.0664,0.0549 0.0228,0.0127 0.0773,0.0378 0.16299,0.0756 0.0694,0.0308 0.11731,0.055 0.14364,0.0726 0.0352,0.0233 0.062,0.0519 0.0809,0.0853 0.0188,0.033 0.0286,0.0703 0.0286,0.1125 0,0.0522 -0.0164,0.10055 -0.0484,0.145 -0.0316,0.0443 -0.0756,0.0781 -0.13181,0.10234 -0.0563,0.0241 -0.12036,0.0365 -0.1928,0.0365 -0.10946,0 -0.1991,-0.0238 -0.2685,-0.0712 -0.069,-0.0484 -0.10372,-0.13399 -0.10417,-0.25795 z m 0.90032,0 0.12652,-0.0119 -0.003,0.0334 c 0,0.0373 0.009,0.0715 0.0259,0.10279 0.0172,0.0307 0.0452,0.0549 0.0848,0.072 0.0395,0.0167 0.0865,0.0251 0.14105,0.0251 0.0773,0 0.13612,-0.0172 0.17661,-0.051 0.0408,-0.0338 0.0615,-0.0726 0.0615,-0.11597 0,-0.0304 -0.0111,-0.0581 -0.0325,-0.0831 -0.022,-0.0246 -0.0818,-0.0579 -0.17976,-0.10009 -0.076,-0.033 -0.1279,-0.0581 -0.15557,-0.0756 -0.0435,-0.0286 -0.0756,-0.0597 -0.0962,-0.0931 -0.0206,-0.0339 -0.0313,-0.0721 -0.0313,-0.1152 0,-0.0496 0.0135,-0.0945 0.0409,-0.13441 0.0272,-0.0401 0.0672,-0.0707 0.11946,-0.0918 0.0528,-0.0212 0.11206,-0.0317 0.17796,-0.0317 0.0786,0 0.14499,0.0132 0.1991,0.0396 0.054,0.0265 0.0931,0.0615 0.11732,0.10541 0.0246,0.044 0.0369,0.0862 0.0369,0.1261 0,0.004 0,0.0106 0,0.0199 l -0.1243,0.01 c 0,-0.0272 -0.003,-0.0484 -0.008,-0.0637 -0.009,-0.0269 -0.0225,-0.0497 -0.0408,-0.0682 -0.0185,-0.0185 -0.044,-0.033 -0.0765,-0.0439 -0.0321,-0.0114 -0.068,-0.0172 -0.10808,-0.0172 -0.0703,0 -0.12475,0.0159 -0.16391,0.0475 -0.0298,0.0241 -0.0448,0.0563 -0.0448,0.0963 0,0.0238 0.006,0.0448 0.0185,0.0637 0.0122,0.0185 0.0342,0.0369 0.0664,0.0549 0.0228,0.0127 0.0772,0.0378 0.16298,0.0756 0.0694,0.0308 0.11732,0.055 0.14364,0.0726 0.0352,0.0233 0.062,0.0519 0.0809,0.0853 0.0188,0.033 0.0286,0.0703 0.0286,0.1125 0,0.0522 -0.0164,0.10055 -0.0484,0.145 -0.0316,0.0443 -0.0756,0.0781 -0.13184,0.10234 -0.0563,0.0241 -0.12036,0.0365 -0.19291,0.0365 -0.10935,0 -0.19899,-0.0238 -0.26839,-0.0712 -0.0691,-0.0484 -0.10372,-0.13399 -0.10417,-0.25795 z m 0.88278,0.3125 0.20201,-0.96626 h 0.12835 l -0.20124,0.96626 z m 0.39233,-0.3125 0.12655,-0.0119 -0.003,0.0334 c 0,0.0373 0.009,0.0715 0.0259,0.10279 0.0172,0.0307 0.0452,0.0549 0.0848,0.072 0.0395,0.0167 0.0865,0.0251 0.14094,0.0251 0.0774,0 0.13621,-0.0172 0.17671,-0.051 0.0408,-0.0338 0.0615,-0.0726 0.0615,-0.11597 0,-0.0304 -0.0111,-0.0581 -0.0325,-0.0831 -0.022,-0.0246 -0.0818,-0.0579 -0.17976,-0.10009 -0.076,-0.033 -0.1279,-0.0581 -0.15557,-0.0756 -0.0435,-0.0286 -0.0756,-0.0597 -0.0962,-0.0931 -0.0206,-0.0339 -0.0313,-0.0721 -0.0313,-0.1152 0,-0.0496 0.0138,-0.0945 0.041,-0.13441 0.0272,-0.0401 0.0672,-0.0707 0.11946,-0.0918 0.0528,-0.0212 0.11203,-0.0317 0.17796,-0.0317 0.0786,0 0.14499,0.0132 0.19907,0.0396 0.054,0.0265 0.0932,0.0615 0.11735,0.10541 0.0246,0.044 0.0369,0.0862 0.0369,0.1261 0,0.004 0,0.0106 0,0.0199 l -0.12441,0.01 c 0,-0.0272 -0.003,-0.0484 -0.007,-0.0637 -0.009,-0.0269 -0.0225,-0.0497 -0.0408,-0.0682 -0.0185,-0.0185 -0.044,-0.033 -0.0765,-0.0439 -0.0321,-0.0114 -0.068,-0.0172 -0.10811,-0.0172 -0.0703,0 -0.12475,0.0159 -0.16388,0.0475 -0.0299,0.0241 -0.0448,0.0563 -0.0448,0.0963 0,0.0238 0.006,0.0448 0.0185,0.0637 0.0122,0.0185 0.0342,0.0369 0.0664,0.0549 0.0228,0.0127 0.0773,0.0378 0.16301,0.0756 0.0694,0.0308 0.11731,0.055 0.14364,0.0726 0.0352,0.0233 0.062,0.0519 0.0809,0.0853 0.019,0.033 0.0286,0.0703 0.0286,0.1125 0,0.0522 -0.0164,0.10055 -0.0484,0.145 -0.0316,0.0443 -0.0756,0.0781 -0.13182,0.10234 -0.0563,0.0241 -0.12036,0.0365 -0.19293,0.0365 -0.10933,0 -0.19897,-0.0238 -0.26837,-0.0712 -0.0691,-0.0484 -0.10372,-0.13399 -0.10417,-0.25795 z m 1.11215,0.3125 0.1784,-0.85646 h -0.31689 l 0.0228,-0.1098 h 0.76062 l -0.0228,0.1098 h -0.31462 l -0.17841,0.85646 z m 0.39055,0 0.5479,-0.96626 h 0.15208 l 0.15949,0.96626 h -0.12517 l -0.0466,-0.27818 h -0.39111 l -0.15467,0.27818 z m 0.35195,-0.37796 h 0.3199 l -0.0378,-0.24251 c -0.0146,-0.0963 -0.0233,-0.17616 -0.0268,-0.24038 -0.022,0.0553 -0.0541,0.12081 -0.0963,0.19685 z m 0.64151,0.37796 0.20214,-0.96626 h 0.12517 l 0.16312,0.36243 c 0.0492,0.11081 0.0887,0.20394 0.11776,0.27953 0.0167,0.0439 0.036,0.10327 0.0579,0.17796 0.0119,-0.0813 0.0268,-0.16526 0.0449,-0.25175 l 0.11856,-0.56817 h 0.12565 l -0.20169,0.96626 h -0.1278 l -0.23947,-0.55851 c -0.0426,-0.0984 -0.076,-0.18502 -0.0998,-0.26016 -0.007,0.0629 -0.0193,0.1397 -0.0382,0.23116 l -0.1226,0.58751 z m 1.21494,0 0.17885,-0.85646 h -0.31721 l 0.0233,-0.1098 h 0.76049 l -0.0233,0.1098 h -0.31417 l -0.17883,0.85646 z"
       style="fill:#c00630;fill-opacity:1;fill-rule:nonzero;stroke:none;stroke-width:0.112484" />
  </g>
</svg>
