<?xml version="1.0" encoding="UTF-8" standalone="no"?>
<!-- Created with Inkscape (http://www.inkscape.org/) -->

<svg
   width="31.007107mm"
   height="6.5733714mm"
   viewBox="0 0 31.007107 6.5733714"
   version="1.1"
   id="svg1"
   inkscape:version="1.4 (e7c3feb1, 2024-10-09)"
   sodipodi:docname="ragnarok.svg"
   xmlns:inkscape="http://www.inkscape.org/namespaces/inkscape"
   xmlns:sodipodi="http://sodipodi.sourceforge.net/DTD/sodipodi-0.dtd"
   xmlns="http://www.w3.org/2000/svg"
   xmlns:svg="http://www.w3.org/2000/svg">
  <sodipodi:namedview
     id="namedview1"
     pagecolor="#ffffff"
     bordercolor="#000000"
     borderopacity="0.25"
     inkscape:showpageshadow="2"
     inkscape:pageopacity="0.0"
     inkscape:pagecheckerboard="0"
     inkscape:deskcolor="#d1d1d1"
     inkscape:document-units="mm"
     inkscape:zoom="0.80176768"
     inkscape:cx="57.99685"
     inkscape:cy="12.472441"
     inkscape:window-width="1200"
     inkscape:window-height="1027"
     inkscape:window-x="0"
     inkscape:window-y="25"
     inkscape:window-maximized="0"
     inkscape:current-layer="layer1" />
  <defs
     id="defs1">
    <clipPath
       clipPathUnits="userSpaceOnUse"
       id="clipPath150">
      <path
         d="M 0,0 H 1970 V 1179 H 0 Z"
         transform="translate(2.5e-5)"
         id="path150" />
    </clipPath>
    <clipPath
       clipPathUnits="userSpaceOnUse"
       id="clipPath151">
      <path
         d="M 0,0 H 1970 V 1179 H 0 Z"
         transform="matrix(1,0,0,0.99974906,-993.02775,-1102.5233)"
         id="path151" />
    </clipPath>
  </defs>
  <g
     inkscape:label="Capa 1"
     inkscape:groupmode="layer"
     id="layer1"
     transform="translate(-89.69375,-145.25623)">
    <g
       id="g1">
      <path
         d="m 966.121,1055.25 c -7.746,0 -15.176,3.078 -20.656,8.559 -5.477,5.476 -8.555,12.91 -8.555,20.66 0,7.746 3.078,15.179 8.555,20.66 5.48,5.48 12.91,8.559 20.656,8.559 7.746,0 15.18,-3.079 20.656,-8.559 5.477,-5.481 8.555,-12.914 8.555,-20.66 0,-16.137 -13.078,-29.219 -29.211,-29.219 z m -14.691,10.844 h 16.105 l 4.008,1.578 v 9.949 l -3.723,2.047 -3.937,0.402 -0.442,0.825 -1.488,0.664 -0.027,2.578 c -1.817,-0.325 -3.563,-0.946 -5.176,-1.84 l 0.012,-0.789 -1.289,-0.477 -0.61,-1.047 -3.906,-0.316 -3.535,-2.047 v -9.949 z m 2.879,1.468 c -0.039,0 -0.079,0.016 -0.102,0.047 -0.031,0.047 -0.023,0.11 0.02,0.149 l 3.425,2.988 -2.058,0.043 c -0.047,0 -0.086,0.031 -0.102,0.078 -0.015,0.043 0,0.094 0.035,0.121 l 3.934,3.114 -1.938,0.144 c -0.05,0 -0.093,0.039 -0.101,0.09 -0.012,0.051 0.012,0.098 0.058,0.121 l 7.133,3.578 c 0.028,0.012 0.055,0.016 0.078,0.01 0.028,-0.01 0.051,-0.023 0.067,-0.047 0.031,-0.047 0.019,-0.109 -0.02,-0.144 l -3.429,-2.989 2.058,-0.047 c 0.047,0 0.09,-0.031 0.106,-0.074 0.011,-0.043 0,-0.094 -0.039,-0.121 l -3.934,-3.113 1.941,-0.145 c 0.051,-0.01 0.09,-0.043 0.102,-0.09 0.008,-0.05 -0.016,-0.097 -0.059,-0.121 l -7.136,-3.578 c -0.012,-0.01 -0.024,-0.01 -0.039,-0.012 z m 20.035,1.215 0.23,0.043 c 0.125,0.024 0.336,0.094 0.465,0.149 0.133,0.058 0.359,0.148 0.504,0.203 0.473,0.172 1.875,0.906 2.43,1.277 1.449,0.953 2.797,2.352 3.519,3.629 1.32,2.356 1.719,3.918 1.641,6.473 -0.028,0.961 -0.082,1.511 -0.199,2.035 -0.246,1.09 -0.414,1.59 -0.907,2.672 -1.054,2.328 -3.078,4.433 -5.359,5.582 l -0.523,0.265 0.316,0.434 c 1.215,1.645 4.977,6.699 6.801,9.137 0.543,0.722 1.117,1.496 1.273,1.711 l 0.285,0.394 h -8.035 l -2,-2.691 c -1.101,-1.485 -2.844,-3.82 -3.871,-5.199 l -1.867,-2.504 -1.934,-0.024 -1.933,-0.019 v -5.762 h 2.601 c 3.637,0 4.309,-0.102 5.684,-0.82 1.195,-0.625 2.363,-1.922 2.851,-3.176 0.368,-0.934 0.461,-1.414 0.457,-2.375 0,-0.766 -0.035,-0.996 -0.203,-1.512 -0.332,-1.027 -1.023,-1.902 -1.91,-2.422 l -0.324,-0.191 0.004,-3.656 z m -17.602,14.508 c 1.649,0.715 3.391,1.184 5.176,1.383 l -0.031,2.695 c -1.813,-0.332 -3.555,-0.957 -5.164,-1.855 z m -0.027,3.219 c 1.64,0.719 3.383,1.187 5.164,1.391 l -0.031,2.691 c -1.809,-0.332 -3.551,-0.965 -5.153,-1.863 z m -0.031,3.215 c 1.64,0.722 3.378,1.195 5.156,1.402 l -0.031,2.688 c -1.805,-0.336 -3.543,-0.969 -5.145,-1.875 z m -0.032,3.215 c 1.637,0.726 3.375,1.203 5.149,1.414 l -0.031,2.683 c -1.805,-0.34 -3.54,-0.976 -5.137,-1.883 z m -0.027,3.218 c 1.633,0.727 3.363,1.207 5.141,1.422 l -0.036,2.684 c -1.8,-0.348 -3.531,-0.988 -5.125,-1.899 z m -0.031,3.215 c 1.633,0.731 3.359,1.215 5.133,1.434 l -0.008,0.5 0.621,0.562 -0.008,0.774 0.008,0.203 h -6.402 l -0.004,-0.278 0.004,-0.757 0.64,-0.489 z"
         style="opacity:0.230089;fill:#070423;fill-opacity:1;fill-rule:nonzero;stroke:none"
         transform="matrix(0.11248454,0,0,0.11248454,-15.69414,26.55692)"
         clip-path="url(#clipPath150)"
         id="path152" />
      <text
         xml:space="preserve"
         transform="matrix(0.11248454,0,0,0.11251278,96.00613,150.60489)"
         clip-path="url(#clipPath151)"
         id="text152"
         style="opacity:0.230089"><tspan
           style="font-variant:normal;font-weight:700;font-size:42.5088px;font-family:Arial;writing-mode:lr-tb;fill:#070423;fill-opacity:1;fill-rule:nonzero;stroke:none"
           x="0"
           y="0"
           id="tspan152">AGNARÖK</tspan></text>
    </g>
  </g>
</svg>
