<?xml version="1.0" encoding="UTF-8" standalone="no"?>
<!-- Created with Inkscape (http://www.inkscape.org/) -->

<svg
   width="24.781803mm"
   height="12.964163mm"
   viewBox="0 0 24.781803 12.964163"
   version="1.1"
   id="svg1"
   inkscape:version="1.4 (e7c3feb1, 2024-10-09)"
   sodipodi:docname="sesion_logo.svg"
   xmlns:inkscape="http://www.inkscape.org/namespaces/inkscape"
   xmlns:sodipodi="http://sodipodi.sourceforge.net/DTD/sodipodi-0.dtd"
   xmlns="http://www.w3.org/2000/svg"
   xmlns:svg="http://www.w3.org/2000/svg">
  <sodipodi:namedview
     id="namedview1"
     pagecolor="#ffffff"
     bordercolor="#000000"
     borderopacity="0.25"
     inkscape:showpageshadow="2"
     inkscape:pageopacity="0.0"
     inkscape:pagecheckerboard="0"
     inkscape:deskcolor="#d1d1d1"
     inkscape:document-units="mm"
     inkscape:zoom="0.80176768"
     inkscape:cx="46.771654"
     inkscape:cy="23.697638"
     inkscape:window-width="1200"
     inkscape:window-height="1027"
     inkscape:window-x="0"
     inkscape:window-y="25"
     inkscape:window-maximized="0"
     inkscape:current-layer="layer1" />
  <defs
     id="defs1" />
  <g
     inkscape:label="Capa 1"
     inkscape:groupmode="layer"
     id="layer1"
     transform="translate(-92.604173,-142.08124)">
    <path
       id="path259"
       d="m 105.00693,142.18365 c -0.22849,0 -0.41349,0.18494 -0.41349,0.41339 0,0.22857 0.185,0.41349 0.41349,0.41349 0.22852,0 0.41352,-0.18492 0.41352,-0.41349 0,-0.22845 -0.185,-0.41339 -0.41352,-0.41339 z m 2.24711,0.28684 c -0.2285,0 -0.41349,0.18504 -0.41349,0.41349 0,0.22846 0.18499,0.41396 0.41349,0.41351 0.22841,0 0.41338,-0.18505 0.41338,-0.41351 0,-0.22845 -0.18497,-0.41349 -0.41338,-0.41349 z m -4.47305,0.003 c -0.22852,0 -0.41352,0.18539 -0.41352,0.41384 0,0.22857 0.185,0.41349 0.41352,0.41349 0.2285,0 0.41349,-0.18537 0.41349,-0.41349 0,-0.22845 -0.18499,-0.41384 -0.41349,-0.41384 z m -2.21766,0.61113 c -0.22804,0 -0.41349,0.18505 -0.41349,0.4135 0,0.22846 0.18545,0.41394 0.41349,0.41394 0.22852,0 0.41352,-0.18548 0.41352,-0.41394 0,-0.22845 -0.185,-0.4135 -0.41352,-0.4135 z m 9.08053,0.12656 c -0.22852,0 -0.41352,0.18547 -0.41352,0.41394 0,0.22846 0.185,0.41349 0.41352,0.41349 0.22849,0 0.41349,-0.18503 0.41349,-0.41349 0,-0.22847 -0.185,-0.41394 -0.41349,-0.41394 z m -4.62724,0.37705 c -0.21704,0 -0.39281,0.17569 -0.39281,0.39278 0,0.21711 0.17577,0.39325 0.39281,0.39325 0.21658,0 0.3928,-0.17614 0.39235,-0.39325 0,-0.21709 -0.17577,-0.39278 -0.39235,-0.39278 z m 1.97855,0.15195 c -0.21704,0 -0.3928,0.17582 -0.3928,0.39291 0,0.21698 0.17576,0.3928 0.3928,0.3928 0.21704,0 0.3928,-0.17627 0.3928,-0.3928 0,-0.21709 -0.17621,-0.39291 -0.3928,-0.39291 z m -3.99928,0.003 c -0.21715,0 -0.3928,0.17571 -0.3928,0.3928 0,0.21709 0.17565,0.3928 0.3928,0.3928 0.21703,0 0.3928,-0.17571 0.3928,-0.3928 0,-0.21709 -0.17622,-0.3928 -0.3928,-0.3928 z m 8.63272,0.53385 c -0.22853,0 -0.41397,0.18505 -0.41397,0.41349 0,0.22847 0.18544,0.41349 0.41397,0.41349 0.22804,0 0.41304,-0.18502 0.41304,-0.41349 0,-0.22844 -0.185,-0.41349 -0.41304,-0.41349 z m -13.22623,0.0307 c -0.22839,0 -0.41339,0.18502 -0.41339,0.41349 0,0.22812 0.185,0.41349 0.41339,0.41349 0.22852,0 0.41351,-0.18502 0.41351,-0.41349 0,-0.22847 -0.18499,-0.41349 -0.41351,-0.41349 z m 2.6307,0.0185 c -0.21704,0 -0.39281,0.17581 -0.39281,0.3929 0,0.21699 0.17577,0.3928 0.39281,0.3928 0.21703,0 0.3928,-0.17581 0.3928,-0.3928 0,-0.21709 -0.17622,-0.3929 -0.3928,-0.3929 z m 8.10675,0.0774 c -0.21704,0 -0.39283,0.17571 -0.39283,0.3928 0,0.21709 0.17579,0.3928 0.39283,0.3928 0.21669,0 0.3928,-0.17571 0.3928,-0.3928 0,-0.21709 -0.17611,-0.3928 -0.3928,-0.3928 z m -4.1474,0.48818 c -0.21704,0 -0.3928,0.17571 -0.3928,0.3928 0,0.21709 0.17576,0.3928 0.3928,0.3928 0.21659,0 0.39283,-0.17571 0.39283,-0.3928 0,-0.21709 -0.17624,-0.3928 -0.39283,-0.3928 z m -1.75228,0.1243 c -0.21704,0 -0.39283,0.17582 -0.39283,0.39291 0,0.21698 0.17624,0.3928 0.39283,0.3928 0.21704,0 0.3928,-0.17582 0.3928,-0.3928 0,-0.21709 -0.17576,-0.39291 -0.3928,-0.39291 z m 3.54102,0.0132 c -0.21703,0 -0.39282,0.17582 -0.39282,0.39291 0,0.21653 0.17579,0.3928 0.39282,0.3928 0.2167,0 0.3928,-0.17582 0.3928,-0.3928 0,-0.21709 -0.1761,-0.39323 -0.3928,-0.39291 z m 4.12727,0.32824 c -0.21707,0 -0.39283,0.17582 -0.39283,0.39291 0,0.21698 0.17621,0.39325 0.39283,0.3928 0.21703,0 0.3928,-0.17582 0.3928,-0.3928 0,-0.21664 -0.17577,-0.39291 -0.3928,-0.39291 z m -11.78544,0.0343 c -0.21659,0 -0.39281,0.17579 -0.39281,0.39277 0,0.21712 0.17622,0.39325 0.39281,0.39325 0.21703,0 0.39282,-0.17613 0.39282,-0.39325 0,-0.21653 -0.17579,-0.39277 -0.39282,-0.39277 z m 2.42062,0.16783 c -0.21704,0 -0.39281,0.17578 -0.39281,0.3929 0,0.21699 0.17577,0.3928 0.39281,0.3928 0.21661,0 0.39282,-0.17581 0.39282,-0.3928 0,-0.21712 -0.17621,-0.3929 -0.39282,-0.3929 z m 7.07069,0.0615 c -0.21703,0 -0.3928,0.17582 -0.3928,0.3928 0,0.21709 0.17622,0.39291 0.3928,0.39291 0.21715,0 0.3928,-0.17582 0.3928,-0.39291 0,-0.21698 -0.17565,-0.39325 -0.3928,-0.3928 z m 4.76748,0.10856 c -0.22852,0 -0.41349,0.18547 -0.41349,0.41394 0,0.22844 0.18497,0.41349 0.41349,0.41349 0.22852,0 0.41338,-0.18505 0.41338,-0.41349 0,-0.22847 -0.18486,-0.41349 -0.41338,-0.41394 z m -16.7308,0.003 c -0.22852,0 -0.41351,0.18536 -0.41351,0.41383 0,0.22855 0.18499,0.41349 0.41351,0.41349 0.22852,0 0.41349,-0.18494 0.41349,-0.41349 0,-0.22847 -0.18497,-0.41339 -0.41349,-0.41383 z m 8.33525,0.47185 c -0.20386,0 -0.36862,0.16526 -0.36862,0.36862 0,0.20394 0.16476,0.36872 0.36862,0.36872 0.20344,0 0.36875,-0.16478 0.36875,-0.36872 0,-0.20336 -0.16531,-0.36862 -0.36875,-0.36862 z m 1.53392,0.16042 c -0.20378,0 -0.36864,0.16523 -0.36864,0.36862 0,0.20346 0.16486,0.36859 0.36864,0.36859 0.20355,0 0.3683,-0.16468 0.36875,-0.36859 0,-0.20339 -0.1652,-0.36862 -0.36875,-0.36862 z m -3.05152,0.022 c -0.20341,0 -0.36816,0.16478 -0.36816,0.36827 0,0.20381 0.16475,0.36907 0.36816,0.36907 0.20389,0 0.36865,-0.16526 0.36865,-0.36907 0,-0.20349 -0.16521,-0.36827 -0.36865,-0.36827 z m 6.69454,0.0519 c -0.21703,0 -0.39327,0.17581 -0.39327,0.39277 0,0.21712 0.17624,0.39325 0.39327,0.3928 0.21704,0 0.3928,-0.17568 0.3928,-0.3928 0,-0.21696 -0.17576,-0.39277 -0.3928,-0.39277 z m -10.29673,0.0254 c -0.21704,0 -0.3928,0.17568 -0.39325,0.39235 0,0.21741 0.17621,0.39322 0.39325,0.39322 0.21672,0 0.39282,-0.17613 0.39237,-0.39322 0,-0.21667 -0.17565,-0.39235 -0.39237,-0.39235 z m -2.33582,0.15634 c -0.21704,0 -0.39283,0.17627 -0.39283,0.39325 0,0.21664 0.17624,0.39291 0.39283,0.39291 0.21714,0 0.3929,-0.17582 0.3929,-0.39291 0,-0.21698 -0.17576,-0.39325 -0.3929,-0.39325 z m 14.92575,0.006 c -0.21704,0 -0.3928,0.17571 -0.3928,0.3928 0,0.21709 0.17576,0.39325 0.3928,0.39325 0.21704,0 0.39328,-0.17616 0.39328,-0.39325 0,-0.21709 -0.17624,-0.3928 -0.39328,-0.3928 z m -10.4149,0.16388 c -0.20344,0 -0.36864,0.16526 -0.36864,0.36907 0,0.20349 0.1652,0.36872 0.36864,0.36872 0.20386,0 0.36862,-0.16523 0.36862,-0.36872 0,-0.20381 -0.16476,-0.36862 -0.36862,-0.36907 z m 6.05441,0.0562 c -0.20344,0 -0.36817,0.16523 -0.36817,0.36907 0,0.20346 0.16473,0.36827 0.36817,0.36827 0.20389,0 0.36864,-0.16481 0.36864,-0.36827 0,-0.20384 -0.16475,-0.36907 -0.36864,-0.36907 z m -12.92302,0.61338 c -0.22807,0 -0.41338,0.18503 -0.41338,0.41349 0,0.22845 0.18531,0.41349 0.41338,0.41349 0.2285,0 0.41349,-0.18504 0.41349,-0.41349 0,-0.22846 -0.18499,-0.41349 -0.41349,-0.41349 z m 19.65971,0.0106 c -0.22839,0 -0.41339,0.18494 -0.41339,0.41349 0,0.22847 0.185,0.41383 0.41339,0.41383 0.22852,0 0.41351,-0.18536 0.41351,-0.41383 0,-0.22855 -0.18499,-0.41349 -0.41351,-0.41349 z m -3.28137,0.0716 c -0.21703,0 -0.3928,0.17571 -0.3928,0.3928 0,0.21698 0.17622,0.3928 0.3928,0.3928 0.21707,0 0.39283,-0.17582 0.39283,-0.3928 0,-0.21709 -0.17576,-0.3928 -0.39283,-0.3928 z m -6.54293,0.003 c -0.18105,0 -0.32824,0.14668 -0.32824,0.32824 0,0.18097 0.14719,0.32821 0.32824,0.32821 0.1814,0 0.32816,-0.14724 0.32816,-0.32821 0,-0.18156 -0.14676,-0.32824 -0.32816,-0.32824 z m 4.43833,0.014 c -0.20343,0 -0.36875,0.16523 -0.36875,0.36859 0,0.20394 0.16532,0.36862 0.36875,0.36862 0.20344,0 0.36862,-0.16468 0.36862,-0.36862 0,-0.20336 -0.16518,-0.36859 -0.36862,-0.36859 z m -8.87619,0 c -0.20343,0 -0.36861,0.16512 -0.36861,0.36859 0,0.20383 0.16518,0.36907 0.36861,0.36907 0.20389,0 0.36865,-0.16524 0.36865,-0.36907 0,-0.20347 -0.16476,-0.36859 -0.36865,-0.36859 z m -2.11394,0.022 c -0.21658,0 -0.39282,0.17613 -0.39282,0.3928 0,0.21709 0.17579,0.39322 0.39282,0.39322 0.21704,0 0.3928,-0.17613 0.3928,-0.39322 0,-0.21667 -0.17576,-0.39235 -0.3928,-0.3928 z m 7.78389,0.0809 c -0.18151,0 -0.32827,0.14668 -0.32827,0.32824 0,0.18097 0.14676,0.32779 0.32827,0.32824 0.18094,0 0.32768,-0.14727 0.32768,-0.32824 0,-0.18156 -0.14674,-0.32824 -0.32768,-0.32824 z m -2.51992,0.0316 c -0.18106,0 -0.32782,0.14714 -0.32782,0.32825 0,0.18142 0.14676,0.32821 0.32782,0.32821 0.1814,0 0.32813,-0.14679 0.32813,-0.32821 0,-0.18111 -0.14673,-0.32825 -0.32813,-0.32825 z m -1.21589,0.35679 c -0.18093,0 -0.32769,0.14714 -0.32814,0.32825 0,0.181 0.14676,0.32824 0.32814,0.32824 0.18105,0 0.32826,-0.14679 0.32826,-0.32824 0,-0.18111 -0.14721,-0.32825 -0.32826,-0.32825 z m 5.06886,0.007 c -0.18106,0 -0.3278,0.14679 -0.32825,0.32779 0,0.18153 0.14719,0.32822 0.32825,0.32822 0.1815,0 0.32826,-0.14669 0.32826,-0.32822 0,-0.181 -0.14676,-0.32824 -0.32826,-0.32779 z m -11.30996,0.15388 c -0.21659,0 -0.3928,0.17616 -0.39235,0.39325 0,0.21698 0.17576,0.3928 0.39235,0.3928 0.21704,0 0.39327,-0.17582 0.39327,-0.3928 0,-0.21709 -0.17623,-0.39325 -0.39327,-0.39325 z m 17.47954,0 c -0.2167,0 -0.39249,0.17627 -0.39249,0.39325 0,0.21664 0.17579,0.39291 0.39249,0.39291 0.21703,0 0.3928,-0.17582 0.39325,-0.39291 0,-0.21698 -0.17622,-0.39325 -0.39325,-0.39325 z m -14.35764,0.30673 c -0.20342,0 -0.36862,0.16526 -0.36862,0.36862 0,0.20394 0.1652,0.36917 0.36862,0.36917 0.20343,0 0.36864,-0.16523 0.36864,-0.36917 0,-0.20336 -0.16521,-0.36862 -0.36864,-0.36862 z m 11.2028,0.004 c -0.20344,0 -0.36875,0.16478 -0.36875,0.36827 0,0.20384 0.16486,0.36862 0.36875,0.36907 0.20344,0 0.36862,-0.16523 0.36862,-0.36907 0,-0.20349 -0.16518,-0.36872 -0.36862,-0.36827 z m -9.30857,0.13925 c -0.18151,0 -0.32827,0.14724 -0.32827,0.32824 0,0.18111 0.14721,0.32777 0.32827,0.32822 0.18105,0 0.32779,-0.14711 0.32824,-0.32822 0,-0.18145 -0.14719,-0.32824 -0.32824,-0.32824 z m 7.40288,0.009 c -0.18105,0 -0.32782,0.14724 -0.32827,0.32822 0,0.1811 0.14677,0.32824 0.32827,0.32824 0.18105,0 0.32824,-0.14714 0.32824,-0.32824 0,-0.18143 -0.14719,-0.32822 -0.32824,-0.32822 z m -3.72118,0.26715 c -0.14901,0 -0.26979,0.12092 -0.26979,0.26985 0,0.14893 0.12078,0.26974 0.26979,0.26974 0.14843,0 0.26932,-0.12081 0.26932,-0.26974 0,-0.14893 -0.12044,-0.26985 -0.26932,-0.26985 z m 7.73147,0.029 c -0.21659,0 -0.3928,0.17581 -0.3928,0.39235 0,0.21754 0.17576,0.39335 0.3928,0.39335 0.21704,0 0.39328,-0.17581 0.39328,-0.39335 0,-0.21654 -0.17624,-0.3928 -0.39328,-0.39235 z m -15.36816,0.004 c -0.21704,0 -0.3928,0.17579 -0.3928,0.39278 0,0.21711 0.17576,0.39335 0.3928,0.39335 0.21703,0 0.39282,-0.17624 0.39282,-0.39335 0,-0.21654 -0.17624,-0.39278 -0.39282,-0.39278 z m 8.63891,0.0558 c -0.14902,0 -0.2698,0.12091 -0.2698,0.26985 0,0.14848 0.12078,0.26929 0.2698,0.26929 0.14898,0 0.26932,-0.12081 0.26932,-0.26929 0,-0.14894 -0.12034,-0.26985 -0.26932,-0.26985 z m -1.97509,0.0212 c -0.14899,0 -0.26932,0.12081 -0.26932,0.26972 0,0.14904 0.12033,0.2694 0.26932,0.26985 0.14901,0 0.26979,-0.12081 0.26979,-0.26985 0,-0.14891 -0.12078,-0.26972 -0.26979,-0.26972 z m -0.99523,0.25882 c -0.14857,0 -0.26932,0.12081 -0.26932,0.26974 0,0.14894 0.12044,0.26985 0.26932,0.26985 0.14901,0 0.26979,-0.12091 0.26979,-0.26985 0,-0.14893 -0.12078,-0.26974 -0.26979,-0.26974 z m 4.06574,0.0325 c -0.14856,0 -0.26934,0.12081 -0.26934,0.26971 0,0.14894 0.12078,0.2694 0.26934,0.2694 0.14888,0 0.26977,-0.12046 0.26977,-0.2694 0,-0.1489 -0.12089,-0.26971 -0.26977,-0.26971 z m -12.93799,0.13091 c -0.22839,0 -0.41338,0.18492 -0.41338,0.41349 0,0.22847 0.18499,0.41384 0.41338,0.41384 0.22852,0 0.41397,-0.18537 0.41352,-0.41384 0,-0.22857 -0.185,-0.41349 -0.41352,-0.41349 z m 15.55721,0.005 c -0.18105,0 -0.32782,0.14714 -0.32782,0.32824 0,0.18143 0.14677,0.32822 0.32782,0.32822 0.18105,0 0.32816,-0.14679 0.32816,-0.32822 0,-0.1811 -0.14676,-0.32824 -0.32816,-0.32824 z m -9.34196,0.006 c -0.18106,0 -0.32827,0.14668 -0.32827,0.32811 0,0.1811 0.14721,0.32824 0.32827,0.32824 0.18105,0 0.32824,-0.14714 0.32824,-0.32824 0,-0.18098 -0.14674,-0.32811 -0.32824,-0.32811 z m 15.64852,0.19325 c -0.22853,0 -0.41339,0.18502 -0.41339,0.41349 0,0.22844 0.18486,0.41394 0.41339,0.41394 0.22852,0 0.41349,-0.1855 0.41349,-0.41394 0,-0.22847 -0.18497,-0.41349 -0.41349,-0.41349 z m -4.40222,0.0206 c -0.20344,0 -0.36865,0.16523 -0.36865,0.36861 0,0.20349 0.16476,0.36873 0.36865,0.36873 0.20344,0 0.36864,-0.16524 0.36864,-0.36873 0,-0.20383 -0.1652,-0.36861 -0.36864,-0.36861 z m -13.12556,0.0491 c -0.20388,0 -0.36864,0.16479 -0.36864,0.36828 0,0.20381 0.16476,0.36907 0.36864,0.36907 0.20344,0 0.36817,-0.16526 0.36817,-0.36907 0,-0.20349 -0.16473,-0.36828 -0.36817,-0.36828 z m 3.60209,0.0967 c -0.1489,0 -0.26979,0.12081 -0.26979,0.26974 0,0.14893 0.12089,0.2694 0.26979,0.26985 0.14899,0 0.26932,-0.12092 0.26932,-0.26985 0,-0.14893 -0.12033,-0.26974 -0.26932,-0.26974 z m 5.8927,0.004 c -0.14888,0 -0.26977,0.12081 -0.26977,0.26975 0,0.1489 0.12089,0.26985 0.26977,0.26985 0.14901,0 0.26934,-0.12095 0.26934,-0.26985 0,-0.14894 -0.12078,-0.26975 -0.26934,-0.26975 z m -12.64785,0.1533 c -0.21715,0 -0.3928,0.17582 -0.3928,0.3928 0,0.21709 0.17565,0.3928 0.3928,0.3928 0.21703,0 0.39282,-0.17615 0.39282,-0.3928 0,-0.21698 -0.17624,-0.3928 -0.39282,-0.3928 z m 19.47608,0.2026 c -0.21669,0 -0.3928,0.17571 -0.3928,0.3928 0,0.21709 0.17566,0.3928 0.3928,0.3928 0.21704,0 0.39283,-0.17571 0.39283,-0.3928 0,-0.21709 -0.17579,-0.3928 -0.39283,-0.3928 z m -9.80157,0.10496 c -0.11639,0 -0.21084,0.0949 -0.21084,0.21134 0,0.11687 0.0945,0.21135 0.21084,0.21135 0.11684,0 0.2113,-0.0945 0.2113,-0.21135 0,-0.11641 -0.0945,-0.21134 -0.2113,-0.21134 z m 0.78394,0.0681 c -0.11653,0 -0.21098,0.0945 -0.21098,0.21135 0,0.11644 0.0945,0.21093 0.21098,0.21093 0.11639,0 0.21084,-0.0945 0.21084,-0.21093 0,-0.11687 -0.0945,-0.21135 -0.21084,-0.21135 z m -1.56337,0.005 c -0.1165,0 -0.21143,0.0945 -0.21143,0.21135 0,0.11642 0.0949,0.21093 0.21143,0.21093 0.11639,0 0.21084,-0.0945 0.21084,-0.21093 0,-0.11687 -0.0944,-0.21135 -0.21084,-0.21135 z m 4.52524,0.0857 c -0.1489,0 -0.26979,0.12036 -0.26979,0.26929 0,0.14894 0.12089,0.26985 0.26979,0.26985 0.14899,0 0.26932,-0.12091 0.26932,-0.26985 0,-0.14893 -0.12033,-0.26929 -0.26932,-0.26929 z m 1.76467,0.0227 c -0.18105,0 -0.32827,0.14714 -0.32827,0.32824 0,0.18143 0.14722,0.32825 0.32827,0.32825 0.18092,0 0.32769,-0.14682 0.32769,-0.32825 0,-0.1811 -0.14677,-0.32779 -0.32769,-0.32824 z m -10.96338,0.0132 c -0.1814,0 -0.32814,0.14724 -0.32814,0.32822 0,0.18145 0.14708,0.32824 0.32814,0.32824 0.18105,0 0.32827,-0.14679 0.32827,-0.32824 0,-0.18098 -0.14722,-0.32822 -0.32827,-0.32822 z m 1.71193,0 c -0.14901,0 -0.26979,0.12081 -0.26979,0.26974 0,0.14904 0.12078,0.26985 0.26979,0.26985 0.14888,0 0.26977,-0.12081 0.26977,-0.26985 0,-0.14893 -0.12089,-0.26974 -0.26977,-0.26974 z m -4.71204,0.006 c -0.21669,0 -0.39235,0.17569 -0.3928,0.3928 0,0.21709 0.17576,0.39278 0.3928,0.39278 0.21704,0 0.39328,-0.17569 0.39283,-0.39278 0,-0.21711 -0.17579,-0.3928 -0.39283,-0.3928 z m 10.05067,0.0717 c -0.11694,0 -0.2114,0.0944 -0.2114,0.2109 0,0.11687 0.0945,0.21124 0.2114,0.21124 0.11639,0 0.21085,-0.0944 0.21085,-0.21124 0,-0.11652 -0.0945,-0.2109 -0.21085,-0.2109 z m -3.121,0.003 c -0.11649,0 -0.21097,0.0945 -0.21097,0.2109 0,0.11686 0.0945,0.21135 0.21097,0.21135 0.11684,0 0.2113,-0.0945 0.2113,-0.21135 0,-0.11642 -0.0945,-0.2109 -0.2113,-0.2109 z m 10.15122,0.0774 c -0.21704,0 -0.39283,0.17568 -0.39283,0.39277 0,0.21699 0.17579,0.39325 0.39283,0.3928 0.21669,0 0.3928,-0.17581 0.3928,-0.3928 0,-0.21664 -0.17566,-0.39277 -0.3928,-0.39277 z m -6.40101,0.30797 c -0.11652,0 -0.21098,0.0949 -0.21098,0.21135 0,0.11687 0.0945,0.21138 0.21098,0.21138 0.11639,0 0.21084,-0.095 0.21084,-0.21138 0,-0.11641 -0.0944,-0.2109 -0.21084,-0.21135 z m -4.46429,0.0531 c -0.11642,0 -0.21087,0.0945 -0.21087,0.211 0,0.11687 0.0944,0.21124 0.21087,0.21124 0.11695,0 0.2114,-0.0944 0.2114,-0.21124 0,-0.11652 -0.0949,-0.211 -0.2114,-0.211 z m -5.00555,0.0426 c -0.20343,0 -0.36864,0.16523 -0.36864,0.36872 0,0.20381 0.16521,0.36862 0.36864,0.36862 0.20344,0 0.36862,-0.16481 0.36862,-0.36862 0,-0.20349 -0.16518,-0.36872 -0.36862,-0.36872 z m 14.59839,0.0861 c -0.20386,0 -0.36862,0.16481 -0.36862,0.36862 0,0.20394 0.16476,0.36872 0.36862,0.36872 0.20344,0 0.36864,-0.16478 0.36864,-0.36872 0,-0.20381 -0.1652,-0.36862 -0.36864,-0.36862 z m -2.93645,0.0975 c -0.14902,0 -0.26977,0.12081 -0.26977,0.26985 0,0.14894 0.12075,0.26929 0.26977,0.26929 0.14901,0 0.26934,-0.12035 0.26934,-0.26929 0,-0.14904 -0.12033,-0.26985 -0.26934,-0.26985 z m -8.81028,0.0405 c -0.14888,0 -0.26932,0.12081 -0.26932,0.26974 0,0.14891 0.12044,0.26972 0.26932,0.26972 0.14901,0 0.26979,-0.12081 0.26979,-0.26972 0,-0.14893 -0.12078,-0.26974 -0.26979,-0.26974 z m 7.22847,0.18886 c -0.11639,0 -0.2113,0.0945 -0.2113,0.21135 0,0.11642 0.0949,0.21093 0.2113,0.21093 0.11639,0 0.21084,-0.0945 0.21084,-0.21093 0,-0.11687 -0.0944,-0.21135 -0.21084,-0.21135 z m -5.60618,0.0124 c -0.1165,0 -0.21095,0.0943 -0.21095,0.2109 0,0.11686 0.0944,0.21134 0.21095,0.21134 0.11684,0 0.21132,-0.0945 0.21132,-0.21134 0,-0.11655 -0.0945,-0.2109 -0.21132,-0.2109 z m -3.3196,0.14364 c -0.1815,0 -0.32824,0.14679 -0.32824,0.32776 0,0.18146 0.14674,0.32825 0.32824,0.32825 0.18095,0 0.32772,-0.14679 0.32772,-0.32825 0,-0.18097 -0.14677,-0.32776 -0.32772,-0.32776 z m 12.22918,0.0629 c -0.18106,0 -0.32824,0.14669 -0.32824,0.32825 0,0.18097 0.14718,0.32821 0.32824,0.32776 0.18095,0 0.32771,-0.14679 0.32771,-0.32776 0,-0.18156 -0.14676,-0.32825 -0.32771,-0.32825 z m 5.51307,0.1406 c -0.22852,0 -0.41352,0.18495 -0.41352,0.41339 0,0.22857 0.185,0.41349 0.41352,0.41349 0.22839,0 0.41338,-0.18537 0.41338,-0.41349 0,-0.22844 -0.18499,-0.41339 -0.41338,-0.41339 z m -23.26463,0.0146 c -0.22841,0 -0.41383,0.18536 -0.41383,0.41338 0,0.22855 0.18542,0.41394 0.41383,0.41394 0.22807,0 0.41349,-0.18539 0.41349,-0.41394 0,-0.22802 -0.18542,-0.41338 -0.41349,-0.41338 z m 14.93409,0.23632 c -0.11639,0 -0.21087,0.0945 -0.21087,0.21135 0,0.11642 0.0945,0.21093 0.21087,0.21093 0.1165,0 0.2114,-0.0945 0.2114,-0.21093 0,-0.11687 -0.0945,-0.21135 -0.2114,-0.21135 z m -6.60715,0.0233 c -0.11639,0 -0.21084,0.0945 -0.21084,0.2109 0,0.11687 0.0945,0.21138 0.21084,0.21138 0.11695,0 0.2114,-0.0945 0.2114,-0.21138 0,-0.11641 -0.0949,-0.2109 -0.2114,-0.2109 z m 13.62565,0.0153 c -0.2167,0 -0.3928,0.17571 -0.3928,0.3928 0,0.21709 0.1761,0.39325 0.3928,0.39325 0.21703,0 0.39282,-0.17616 0.39282,-0.39325 0,-0.21664 -0.17579,-0.3928 -0.39282,-0.3928 z m -20.62864,0.01 c -0.21659,0 -0.39238,0.17571 -0.39283,0.3928 0,0.21709 0.17579,0.3928 0.39283,0.3928 0.21704,0 0.3928,-0.17571 0.3928,-0.3928 0,-0.21709 -0.17576,-0.3928 -0.3928,-0.3928 z m 5.44322,0.0514 c -0.14856,0 -0.26935,0.12081 -0.26935,0.26974 0,0.14893 0.12034,0.26985 0.26935,0.26985 0.14888,0 0.26977,-0.12092 0.26977,-0.26985 0,-0.14893 -0.12089,-0.26974 -0.26977,-0.26974 z m 9.7576,0.0422 c -0.14854,0 -0.26943,0.12081 -0.26943,0.26975 0,0.14893 0.12089,0.26984 0.26943,0.26984 0.1489,0 0.26979,-0.12091 0.26979,-0.26984 0,-0.14894 -0.12089,-0.2693 -0.26979,-0.26975 z m -13.96482,0.0821 c -0.21704,0 -0.3928,0.17626 -0.3928,0.39322 0,0.21667 0.17576,0.39294 0.3928,0.39294 0.21659,0 0.3928,-0.17582 0.3928,-0.39294 0,-0.21696 -0.17621,-0.39322 -0.3928,-0.39322 z m 18.11435,0.0217 c -0.21658,0 -0.3928,0.17571 -0.3928,0.3928 0,0.21709 0.17577,0.39325 0.3928,0.3928 0.21715,0 0.39294,-0.17571 0.39294,-0.3928 0,-0.21709 -0.17579,-0.3928 -0.39294,-0.3928 z m -1.28561,0.27019 c -0.20388,0 -0.36861,0.16523 -0.36861,0.36862 0,0.20391 0.16473,0.36872 0.36861,0.36917 0.20344,0 0.36865,-0.16526 0.36865,-0.36917 0,-0.20339 -0.16521,-0.36862 -0.36865,-0.36862 z m -15.51413,0.0448 c -0.20344,0 -0.36817,0.16523 -0.36817,0.36872 0,0.20336 0.16473,0.36862 0.36817,0.36862 0.20389,0 0.36875,-0.16526 0.36875,-0.36862 0,-0.20349 -0.16486,-0.36872 -0.36875,-0.36872 z m 4.07284,0.1389 c -0.11695,0 -0.21143,0.0945 -0.21143,0.21138 0,0.11641 0.0945,0.2109 0.21143,0.2109 0.11639,0 0.21084,-0.0945 0.21084,-0.2109 0,-0.1169 -0.0944,-0.21138 -0.21084,-0.21138 z m 7.39399,0.0145 c -0.11639,0 -0.21085,0.0945 -0.21085,0.2109 0,0.11687 0.0945,0.21135 0.21085,0.21135 0.11697,0 0.21143,-0.0949 0.21143,-0.21135 0,-0.11641 -0.0949,-0.2109 -0.21143,-0.2109 z m 2.80826,0.11372 c -0.1815,0 -0.32824,0.14724 -0.32824,0.32822 0,0.1811 0.14674,0.32824 0.32824,0.32824 0.18095,0 0.32771,-0.14669 0.32771,-0.32824 0,-0.18143 -0.14676,-0.32822 -0.32771,-0.32822 z m -13.02186,0.0265 c -0.18151,0 -0.32827,0.14713 -0.32827,0.32822 0,0.18145 0.14676,0.32824 0.32827,0.32824 0.18105,0 0.32781,-0.14724 0.32781,-0.32824 0,-0.18109 -0.14676,-0.32822 -0.32781,-0.32822 z m 11.71064,0.25702 c -0.14891,0 -0.2698,0.1208 -0.2698,0.26974 0,0.14904 0.12089,0.2694 0.2698,0.26985 0.14899,0 0.26932,-0.12081 0.26932,-0.26985 0,-0.14894 -0.12033,-0.26974 -0.26932,-0.26974 z m -10.39469,0.0514 c -0.14933,0 -0.27022,0.12081 -0.26977,0.26975 0,0.14904 0.12076,0.26985 0.26977,0.26985 0.14857,0 0.26935,-0.12081 0.26935,-0.26985 0,-0.14894 -0.12033,-0.26975 -0.26935,-0.26975 z m 9.12313,0.26141 c -0.1165,0 -0.2114,0.095 -0.21095,0.21138 0,0.11686 0.0944,0.21135 0.21095,0.21135 0.11639,0 0.21087,-0.0949 0.21087,-0.21135 0,-0.11642 -0.0945,-0.21093 -0.21087,-0.21138 z m -7.84315,0.098 c -0.1165,0 -0.21095,0.0945 -0.21095,0.21137 0,0.11642 0.0944,0.2109 0.21095,0.2109 0.11639,0 0.21084,-0.0945 0.21084,-0.2109 0,-0.11686 -0.0944,-0.21137 -0.21084,-0.21137 z m -7.97057,0.508 c -0.2285,0 -0.41395,0.18537 -0.41395,0.41394 0,0.22799 0.18545,0.41338 0.41395,0.41338 0.22796,0 0.41296,-0.18539 0.41296,-0.41338 0,-0.22857 -0.185,-0.41394 -0.41296,-0.41394 z m 23.74955,0 c -0.22841,0 -0.41341,0.18537 -0.41341,0.41394 0,0.22799 0.185,0.41304 0.41341,0.41338 0.22805,0 0.41349,-0.18539 0.41349,-0.41338 0,-0.22857 -0.18544,-0.41394 -0.41349,-0.41394 z m -22.40018,0.0206 c -0.21704,0 -0.3928,0.17616 -0.3928,0.39325 0,0.21698 0.17576,0.3928 0.3928,0.3928 0.21704,0 0.3928,-0.17627 0.3928,-0.3928 0,-0.21709 -0.17576,-0.39325 -0.3928,-0.39325 z m 1.33969,0 c -0.21704,0 -0.3928,0.17616 -0.3928,0.39325 0,0.21698 0.17576,0.3928 0.3928,0.3928 0.21659,0 0.3928,-0.17627 0.3928,-0.3928 0,-0.21709 -0.17576,-0.39325 -0.3928,-0.39325 z m 18.4154,0 c -0.21704,0 -0.39325,0.17616 -0.3928,0.39325 0,0.21698 0.17576,0.3928 0.3928,0.3928 0.21659,0 0.3928,-0.17582 0.3928,-0.3928 0,-0.21709 -0.17576,-0.39325 -0.3928,-0.39325 z m 1.31731,0 c -0.2167,0 -0.3928,0.17616 -0.39246,0.39325 0,0.21653 0.17576,0.39235 0.39246,0.3928 0.21703,0 0.39282,-0.17582 0.39327,-0.3928 0,-0.21709 -0.17624,-0.39325 -0.39327,-0.39325 z m -18.4326,0.0241 c -0.20389,0 -0.36864,0.16523 -0.36864,0.36918 0,0.20335 0.16475,0.36859 0.36864,0.36814 0.20344,0 0.3683,-0.16479 0.3683,-0.36814 0,-0.20395 -0.16486,-0.36873 -0.3683,-0.36918 z m 15.80235,0 c -0.20387,0 -0.36862,0.16523 -0.36862,0.36918 0,0.20335 0.1652,0.36859 0.36862,0.36814 0.20343,0 0.36819,-0.16479 0.36864,-0.36814 0,-0.20395 -0.16521,-0.36873 -0.36864,-0.36918 z m -14.50303,0.0409 c -0.18151,0 -0.32827,0.14669 -0.32827,0.32825 0,0.18097 0.14721,0.32776 0.32827,0.32776 0.18105,0 0.32782,-0.14679 0.32827,-0.32776 0,-0.18156 -0.14722,-0.32825 -0.32827,-0.32825 z m 13.19585,0 c -0.18105,0 -0.32782,0.14669 -0.32782,0.32825 0,0.18097 0.14677,0.32776 0.32782,0.32776 0.18151,0 0.32824,-0.14679 0.32824,-0.32776 0,-0.18156 -0.14673,-0.32825 -0.32824,-0.32825 z m -11.89304,0.0584 c -0.14902,0 -0.2698,0.12081 -0.26935,0.26985 0,0.14893 0.12033,0.26929 0.26935,0.26929 0.14888,0 0.26979,-0.12036 0.26979,-0.26929 0,-0.14939 -0.12091,-0.2703 -0.26979,-0.26985 z m 10.60248,0 c -0.14888,0 -0.26976,0.12081 -0.26932,0.26985 0,0.14893 0.12044,0.26929 0.26932,0.26929 0.14902,0 0.2698,-0.12036 0.2698,-0.26929 0,-0.14904 -0.12078,-0.26985 -0.2698,-0.26985 z m -9.31328,0.0585 c -0.11697,0 -0.21142,0.0945 -0.21142,0.21138 0,0.11641 0.0945,0.2109 0.21142,0.2109 0.11639,0 0.21085,-0.0945 0.21085,-0.2109 0,-0.11687 -0.0945,-0.21138 -0.21085,-0.21138 z m 8.01577,0 c -0.11684,0 -0.21085,0.0945 -0.21085,0.21138 0,0.11641 0.0945,0.2109 0.21085,0.2109 0.11649,0 0.21098,-0.0945 0.21098,-0.2109 0,-0.11687 -0.0945,-0.21138 -0.21098,-0.21138 z"
       style="fill:#070423;fill-opacity:1;fill-rule:nonzero;stroke:#161615;stroke-width:0.204813;stroke-linecap:butt;stroke-linejoin:miter;stroke-miterlimit:4;stroke-dasharray:none;stroke-opacity:1" />
  </g>
</svg>
